<?xml version="1.0" encoding="utf-8"?>
<!-- Generator: Adobe Illustrator 24.2.0, SVG Export Plug-In . SVG Version: 6.00 Build 0)  -->
<svg version="1.1" id="Layer_1" xmlns="http://www.w3.org/2000/svg" xmlns:xlink="http://www.w3.org/1999/xlink" x="0px" y="0px"
	 viewBox="0 0 103 107" style="enable-background:new 0 0 103 107;" xml:space="preserve">
<style type="text/css">
	.st0{fill:none;stroke:#47BF94;stroke-width:6;stroke-linejoin:round;}
	.st1{fill:none;stroke:#359F7E;stroke-width:6;stroke-linejoin:round;}
	.st2{fill:none;stroke:#49DAAA;stroke-width:6;stroke-linejoin:round;}
	.st3{fill:none;stroke:#AAF0D3;stroke-width:6;stroke-linejoin:round;}
</style>
<g>
	<g>
		<path class="st0" d="M4.5,79.7C-2.3,68.1,26.4,44.5,46.1,40c16.6-3.8,55.2,4.1,53.8,17.4"/>
		<path class="st1" d="M10.1,18.1c8.6-10,41.8,13.7,51,30c9.7,17.2,12.9,55.3-1.1,55.4"/>
		<path class="st2" d="M69.8,4.1c12,6,3.8,38.6-11.2,57.3c-10.8,13.4-47,30.5-54.1,18.3"/>
		<path class="st2" d="M99.9,57.5c-1.4,13.3-37.4,15.4-56.1,7.3C25.9,57,1.4,28.3,10.1,18.1"/>
		<path class="st3" d="M60,103.5c-14.3,0.1-24.6-29.7-23.9-51.9C36.9,27.2,56.8-2.4,69.8,4.1"/>
	</g>
</g>
</svg>
