<?xml version="1.0" encoding="utf-8"?>
<!-- Generator: Adobe Illustrator 24.2.0, SVG Export Plug-In . SVG Version: 6.00 Build 0)  -->
<svg version="1.1" id="Layer_1" xmlns="http://www.w3.org/2000/svg" xmlns:xlink="http://www.w3.org/1999/xlink" x="0px" y="0px"
	 viewBox="0 0 175.7 105.7" style="enable-background:new 0 0 175.7 105.7;" xml:space="preserve">
<style type="text/css">
	.st0{fill:#7BB51C;}
	.st1{fill:#FFFFFF;}
</style>
<path class="st0" d="M18.2,105.6h138.5L87.8,36.7L18.2,105.6z"/>
<path class="st1" d="M15.5,102.2l10.8-10.5L22.7,88L16,94.6L4,82.4l-4,3.9L15.5,102.2z"/>
<path class="st1" d="M28.7,89.3l11.1-10.8l-3-3.1l-7,6.8l-3.4-3.5l5.6-5.5L28.8,70l-5.6,5.5l-2.9-3l6.8-6.6l-3-3.1L13,73.6
	L28.7,89.3z"/>
<path class="st1" d="M64.9,38.1c-4.5-4.6-12.2-4-15.9-0.4c-3.7,3.6-5.6,10.9-0.4,16.3c5.8,5.9,12.7,3.8,16.4,0.1
	C70.5,48.8,68.5,41.8,64.9,38.1z M61.6,51c-2.5,2.4-5.5,1.8-8.9-1.8c-2.9-3-2.7-6-0.6-8c1.4-1.4,4.4-2.7,7.9,0.9
	C64,46.2,64.1,48.6,61.6,51z"/>
<path class="st1" d="M77.3,41.9l4.1-4l-6.1-6.3l-3.7-15.3l-4.7,4.6l2.4,8.7l-8.2-3l-4.4,4.3l14,4.5L77.3,41.9z"/>
<path class="st1" d="M55.6,63.2c0,0-9.9-3.4-10.4-3.3c-0.2,0,2.1-6.1-3-8.8c0,0-3.8-2.1-7.6,1.4l-8.1,8l15.7,15.8l4.1-4l-8.5-8.7
	l13.7,3.6L55.6,63.2z M40.2,61c-2.3,2.2-2.6,2.4-2.6,2.4s-3.6-3.7-3.7-3.8s2.6-2.5,3-2.9c0.2-0.2,1.9-1.3,3.3,0.2
	C40.1,56.9,42.5,58.7,40.2,61z"/>
<path class="st1" d="M76.1,19.4l-3.6-3.7L88.3,0l5.2,5.2l-5.7,11.2l11.6-5.3l5,5L88.5,31.9l-3.8-3.9l8.4-8.3L81.6,25l-2.4-2.4
	l5.3-11.4L76.1,19.4z"/>
<path class="st1" d="M103.6,47.1L92.6,36l15.8-15.7l11,11.1l-3.2,3.2l-6.9-7l-2.6,2.6l5.4,5.5l-3.3,3.3l-5.4-5.5l-3.5,3.4l6.8,6.9
	L103.6,47.1z"/>
<path class="st1" d="M139.7,51.9l4.1,4.1l-12,11.9l6.7,6.8l-3.9,3.8l-10.8-10.9L139.7,51.9z"/>
<path class="st1" d="M137.5,81.3l15.8-15.7l4,4l-15.8,15.7L137.5,81.3z"/>
<path class="st1" d="M148.7,92.6l-3.7-3.8l15.8-15.7l5.4,5.4l-4.6,16.3l10.5-10.4l3.6,3.7l-15.8,15.7l-4.7-4.8l4.1-17.1L148.7,92.6z
	"/>
<path class="st1" d="M132.6,44.7L123,35l-15.9,15.7l4.1,4.1l8.6-8.6l-3.1,14.2l4.2,4.2c0,0,3.3-10.1,3.4-10.6c0,0,3.6,2,7.5-1.4
	C131.8,52.6,135.5,49,132.6,44.7z M126.7,49.3c0,0-2,1.4-3.8-0.4l-2.8-2.9c0,0,3.4-3.3,3.8-3.8c0,0,2.6,2.6,2.9,2.9
	C127.2,45.4,129.2,46.9,126.7,49.3z"/>
</svg>
