<svg xmlns="http://www.w3.org/2000/svg" viewBox="0 0 662.44 480.1">
    <g>
        <path fill="#E8441F"
              d="M609.55,12a21.24,21.24,0,0,0-38.27,18.43l5.91,12.27A434.87,434.87,0,0,1,619.07,202.8L422.31,66a21.24,21.24,0,1,0-24.24,34.88L567.68,218.81H93.07L264.29,101A21.24,21.24,0,0,0,240.2,66L43.42,201.42A434.2,434.2,0,0,1,90.87,31,21.24,21.24,0,1,0,53.15,11.48,476.53,476.53,0,0,0,0,229.69V250A477.25,477.25,0,0,0,47,455.79l5.91,12.27a21.23,21.23,0,1,0,38.27-18.41l-5.91-12.28a435,435,0,0,1-42-161.69L240.12,412.52a21.24,21.24,0,0,0,24.25-34.88L97,261.28H567.13l-169,116.31a21.23,21.23,0,1,0,24.08,35L619.12,277.06a434,434,0,0,1-47.56,172,21.24,21.24,0,1,0,37.72,19.53A476.49,476.49,0,0,0,662.44,250.4V230.14a477.37,477.37,0,0,0-47-205.84Z"/>
    </g>
</svg>