<?xml version="1.0" encoding="utf-8"?>
<!-- Generator: Adobe Illustrator 24.2.0, SVG Export Plug-In . SVG Version: 6.00 Build 0)  -->
<svg version="1.1" id="Layer_1" xmlns="http://www.w3.org/2000/svg" xmlns:xlink="http://www.w3.org/1999/xlink" x="0px" y="0px"
	 viewBox="0 0 1792 640" style="enable-background:new 0 0 1792 640;" xml:space="preserve">
<style type="text/css">
	.st0{fill:#F7E1DE;}
</style>
<path class="st0" d="M1792,320c0,17.3-6.3,32.3-19,45l-256,256c-12.7,12.7-27.7,19-45,19s-32.3-6.3-45-19s-19-27.7-19-45V448H384
	v128c0,17.3-6.3,32.3-19,45s-27.7,19-45,19s-32.3-6.3-45-19L19,365C6.3,352.3,0,337.3,0,320c0-17.3,6.3-32.3,19-45L275,19
	c12.7-12.7,27.7-19,45-19s32.3,6.3,45,19s19,27.7,19,45v128h1024V64c0-17.3,6.3-32.3,19-45s27.7-19,45-19s32.3,6.3,45,19l256,256
	C1785.7,287.7,1792,302.7,1792,320z"/>
</svg>
