<svg viewBox="0 0 454 454" fill="none" xmlns="http://www.w3.org/2000/svg">
<circle cx="227" cy="227" r="227" fill="#888888"/>
<path d="M45.4 151.736V302.401L81.5911 302.667V289.168H62.3932V165.235H81.599V151.736H45.4Z" fill="white"/>
<path d="M264.783 185.834H250.058L249.915 238.339C249.915 252.515 244.98 256.432 236.583 256.432C233.485 256.383 230.411 255.884 227.454 254.949L225.655 267.038C229.668 268.432 233.877 269.162 238.119 269.197C253.982 269.197 264.783 261.638 264.783 239.024V185.834Z" fill="white"/>
<path d="M298.769 240.515V230.183L276.061 230.191V240.515H298.769Z" fill="white"/>
<path d="M349.43 268.915C356.562 269.189 363.67 267.948 370.3 265.273L368.254 253.603C363.15 255.695 357.682 256.728 352.176 256.641C334.443 256.641 323.976 245.02 323.976 227.065C323.976 207.352 335.836 196.891 352.312 196.891C357.759 196.828 363.161 197.909 368.175 200.067L371.358 188.188C365.035 185.505 358.207 184.261 351.357 184.545C345.629 184.176 339.889 185.039 334.515 187.077C329.14 189.115 324.252 192.281 320.172 196.368C316.092 200.455 312.913 205.369 310.843 210.789C308.773 216.209 307.859 222.011 308.161 227.814C308.161 252.636 323.762 268.915 349.43 268.915Z" fill="white"/>
<path d="M408.6 302.401V151.333L372.401 151.414V164.913H391.599V288.902H372.401V302.401H408.6Z" fill="white"/>
<path fill-rule="evenodd" clip-rule="evenodd" d="M160.293 225.582C160.293 252.982 143.817 268.714 121.491 268.714C99.1653 268.714 84.2893 251.097 84.2893 227C84.2893 201.823 99.8896 184.069 122.685 184.069C145.481 184.069 160.285 202.565 160.285 225.574L160.293 225.582ZM122.367 256.609C108.175 256.609 99.8975 243.473 99.8975 226.791L99.6826 227.129C99.6826 210.261 107.562 196.061 122.367 196.061C137.171 196.061 144.701 210.64 144.701 226.097C144.701 243.11 136.558 256.609 122.367 256.609Z" fill="white"/>
<path fill-rule="evenodd" clip-rule="evenodd" d="M188.576 185.834C181.381 185.807 174.199 186.416 167.109 187.656L167.237 267.771C173.252 268.52 179.308 268.881 185.368 268.851C200.109 268.851 209.644 266.361 215.375 261.227C217.854 259.197 219.845 256.623 221.196 253.7C222.548 250.776 223.224 247.579 223.175 244.351C223.183 234.527 216.354 226.057 206.842 224.099C210.628 222.937 213.954 220.596 216.348 217.408C218.742 214.22 220.081 210.348 220.174 206.345C220.333 200.083 217.11 194.216 211.777 191.032C204.781 186.858 196.654 185.028 188.576 185.834ZM181.778 219.989H189.308C199.496 219.989 205.242 215.129 205.242 208.174C205.242 201.219 199.512 196.891 190.12 196.891C187.308 196.794 184.493 196.997 181.723 197.496L181.778 219.989ZM189.579 257.995C186.976 258.044 184.373 257.931 181.778 257.657L181.794 230.997H189.117C199.313 230.997 207.447 234.64 207.447 244.496C207.447 254.353 199.13 257.995 189.579 257.995Z" fill="white"/>
</svg>
