<?xml version="1.0" encoding="utf-8"?>
<!-- Generator: Adobe Illustrator 25.2.1, SVG Export Plug-In . SVG Version: 6.00 Build 0)  -->
<svg version="1.1" id="Capa_1" xmlns="http://www.w3.org/2000/svg" xmlns:xlink="http://www.w3.org/1999/xlink" x="0px" y="0px"
	 viewBox="0 0 800 800" style="enable-background:new 0 0 800 800;" xml:space="preserve">
<style type="text/css">
	.st0{fill:#FFFFFF;}
</style>
<g>
	<g>
		<path class="st0" d="M400,0c176.2,0,325.3,72.8,330.3,159.9c-5,87.1-154.1,159.9-330.3,159.9c-176.2,0-325.3-72.8-330.3-159.9
			C74.7,72.8,223.8,0,400,0z"/>
		<path class="st0" d="M730.8,635.6C730.8,724.7,579.3,800,400,800S69.2,724.7,69.2,635.6V557c56.6,68,181.9,114.2,330.8,114.2
			S674.1,625,730.8,557L730.8,635.6L730.8,635.6z"/>
		<path class="st0" d="M730.8,474.4c0,89.1-151.5,164.4-330.8,164.4S69.2,563.5,69.2,474.4v-81.9c56.6,68,181.9,114.2,330.8,114.2
			s274.1-46.3,330.8-114.2L730.8,474.4L730.8,474.4z"/>
		<path class="st0" d="M730.8,309.9c0,89.1-151.5,164.4-330.8,164.4S69.2,399,69.2,309.9V238c56.6,68,181.9,114.2,330.8,114.2
			S674.1,306,730.8,238V309.9z"/>
	</g>
</g>
</svg>
