<svg xmlns="http://www.w3.org/2000/svg" viewBox="0 0 656.71 470.75">
    <g>
        <path fill="#E8441F"
              d="M656.63,91.07c0-.23,0-.46,0-.69s-.11-.76-.17-1.14-.09-.65-.16-1-.11-.43-.17-.64c-.11-.47-.22-.93-.36-1.39v0a21.92,21.92,0,0,0-1.59-3.72c-.1-.19-.23-.37-.33-.55-.24-.4-.46-.79-.72-1.17a21.16,21.16,0,0,0-2.38-2.91l-.21-.23c-.29-.29-.61-.56-.92-.84s-.42-.38-.64-.56-.45-.34-.67-.51-.69-.52-1-.76l-.48-.29c-.45-.29-.91-.56-1.39-.81l-.09-.06A660.24,660.24,0,0,0,342.89.16H331.94a19.69,19.69,0,0,0-5,0H314.45A661.31,661.31,0,0,0,29.25,65.25L12,73.54A21.22,21.22,0,0,0,0,92.67v124a21.24,21.24,0,1,0,42.47,0V106l5.2-2.5A618.79,618.79,0,0,1,308.2,42.68V82.25c-61.18,44.8-93.55,97.59-93.73,153.26-.09,27.82,7.87,54.94,23.44,80.72l-95.67,120a21.24,21.24,0,0,0,16.61,34.48H487.44a21.24,21.24,0,0,0,17.09-33.85L418.1,319.81c17.28-26.86,26.21-55.24,26.31-84.41.18-56-32.19-109.13-93.74-154.2V42.69a617.9,617.9,0,0,1,263.57,63.07v111a21.24,21.24,0,1,0,42.47,0V92.53C656.7,92.05,656.67,91.56,656.63,91.07ZM445.37,428.28H202.93l61.49-77.15c14.28,15.46,31.54,30.27,51.69,44.25l.53.36a21.22,21.22,0,0,0,24,0,321.23,321.23,0,0,0,50-41.63Zm-43.44-193c-.13,40.74-25.37,80.92-73.18,116.82-47.18-35.84-71.94-75.89-71.81-116.42.14-40.74,25.37-80.92,73.19-116.82C377.3,154.68,402.07,194.73,401.93,235.26Z"/>
    </g>
</svg>