<svg xmlns="http://www.w3.org/2000/svg" viewBox="0 0 614.33 475.42">
    <g>
        <path fill="#E8441F"
              d="M605,90.26C517.64,31.34,419.34.2,320.7.2h-9.79a18.8,18.8,0,0,0-5.47,0H294.22C201.81.2,109.05,27.73,26,79.82L10,89.88a21.23,21.23,0,0,0,22.56,36l16-10.06c74.09-46.47,156.36-71.65,238.38-73.06V99.2c-38.11,35.93-64.22,75.89-77.36,118H53a21.24,21.24,0,0,0,0,42.48H200.82c-.72,7-1.12,14.11-1.15,21.22-.18,53.62,19.74,105.44,58,152H207.88a21.24,21.24,0,1,0,0,42.47H407.05a21.24,21.24,0,1,0,0-42.47H357.62c38.61-46.45,58.87-98.19,59.06-151.82,0-7.18-.34-14.32-1-21.42H558.57a21.24,21.24,0,0,0,0-42.48H407.15c-13-42.51-39.2-82.89-77.74-119.29V42.76c87.23,1.78,174.1,30.29,251.81,82.71A21.24,21.24,0,0,0,605,90.26ZM369.78,241.9a20.71,20.71,0,0,0,.58,2.62A169.72,169.72,0,0,1,374.2,281c-.18,50.73-23.14,100.15-66.65,143.91-43-43.8-65.57-93.2-65.4-143.81s23.14-100.16,66.65-143.92C340.67,169.6,361.29,205.11,369.78,241.9Z"/>
    </g>
</svg>