<?xml version="1.0" encoding="utf-8"?>
<!-- Generator: Adobe Illustrator 24.2.0, SVG Export Plug-In . SVG Version: 6.00 Build 0)  -->
<svg version="1.1" id="Layer_1" xmlns:sketch="http://www.bohemiancoding.com/sketch/ns"
	 xmlns="http://www.w3.org/2000/svg" xmlns:xlink="http://www.w3.org/1999/xlink" x="0px" y="0px" viewBox="0 0 19 27"
	 style="enable-background:new 0 0 19 27;" xml:space="preserve">
<style type="text/css">
	.st0{fill-rule:evenodd;clip-rule:evenodd;fill:#F7E1DE;}
</style>
<desc>Created with Sketch.</desc>
<g id="Page-1" sketch:type="MSPage">
	<g id="icon-54-document" sketch:type="MSArtboardGroup">
		<path id="document" sketch:type="MSShapeGroup" class="st0" d="M12.5,0H2C0.9,0,0,0.9,0,2v23c0,1.1,0.9,2,2,2h15c1.1,0,2-0.9,2-2
			V7.5V7l-6-7H12.5L12.5,0L12.5,0z M12,1H2C1.4,1,1,1.5,1,2v23c0,0.5,0.5,1,1,1h15c0.6,0,1-0.4,1-1V8h-4c-1.1,0-2-0.9-2-2V1L12,1z
			 M13,1.5V6c0,0.6,0.5,1,1,1h3.7L13,1.5L13,1.5z"/>
	</g>
</g>
</svg>
