<?xml version="1.0" encoding="utf-8"?>
<!-- Generator: Adobe Illustrator 24.2.0, SVG Export Plug-In . SVG Version: 6.00 Build 0)  -->
<svg version="1.1" id="Layer_1" xmlns="http://www.w3.org/2000/svg" xmlns:xlink="http://www.w3.org/1999/xlink" x="0px" y="0px"
	 viewBox="0 0 419.42 202.75" style="enable-background:new 0 0 419.42 202.75;" xml:space="preserve">
<style type="text/css">
	.st0{fill:#F7E1DE;}
	.st1{fill:url(#SVGID_1_);}
</style>
<g>
	<path class="st0" d="M154.65,58.4V10.3h10.58v21.02l19.51-21.02h12.78l-19.58,20.4l20.47,27.69H185.7l-14.91-20.47l-5.56,5.77v14.7
		H154.65z"/>
	<path class="st0" d="M232.59,53.66c-3.82,3.71-8.58,5.56-14.26,5.56s-10.41-1.84-14.19-5.53c-3.78-3.69-5.67-8.23-5.67-13.64
		c0-5.36,1.91-9.89,5.74-13.6s8.58-5.56,14.26-5.56c5.68,0,10.41,1.84,14.19,5.53c3.78,3.69,5.67,8.23,5.67,13.64
		C238.33,45.41,236.41,49.95,232.59,53.66z M218.47,50.22c2.88,0,5.2-0.97,6.94-2.92c1.74-1.95,2.61-4.36,2.61-7.25
		c0-2.79-0.9-5.19-2.71-7.18c-1.81-1.99-4.13-2.99-6.97-2.99c-2.88,0-5.2,0.97-6.94,2.92c-1.74,1.95-2.61,4.36-2.61,7.25
		c0,2.79,0.9,5.19,2.71,7.18C213.31,49.23,215.63,50.22,218.47,50.22z"/>
	<path class="st0" d="M256.94,59.02c-3.44,0-6.08-0.83-7.94-2.51c-1.86-1.67-2.78-4.52-2.78-8.55V30.5h-4.4v-8.93h4.4v-9.41h10.44
		v9.41h8.66v8.93h-8.66v15.73c0,2.38,1.12,3.57,3.37,3.57c1.83,0,3.55-0.43,5.15-1.31v8.38C262.81,58.31,260.06,59.02,256.94,59.02z
		"/>
	<path class="st0" d="M272.13,58.4V8.24h10.44V58.4H272.13z"/>
	<path class="st0" d="M291.22,17.52V8.24h10.99v9.27H291.22z M291.5,58.4V21.57h10.44V58.4H291.5z"/>
	<path class="st0" d="M310.39,58.4V21.57h10.44v5.22c3.07-3.94,6.67-5.91,10.79-5.91c3.94,0,7.01,1.21,9.21,3.64
		c2.2,2.43,3.3,5.77,3.3,10.03V58.4h-10.44V37.85c0-2.43-0.55-4.28-1.65-5.56c-1.1-1.28-2.66-1.92-4.67-1.92
		c-2.02,0-3.61,0.64-4.78,1.92c-1.17,1.28-1.75,3.14-1.75,5.56V58.4H310.39z"/>
	<path class="st0" d="M165.84,130.4V92.06h-14.63V82.3h39.85v9.76h-14.63v38.34H165.84z"/>
	<path class="st0" d="M192.57,130.4V93.57h10.44v7.42c2.38-5.63,6.3-8.34,11.75-8.11v10.92h-0.55c-3.57,0-6.33,1.09-8.28,3.26
		c-1.95,2.18-2.92,5.42-2.92,9.72v13.6H192.57z"/>
	<path class="st0" d="M228.64,131.08c-3.62,0-6.63-1.01-9.03-3.02c-2.4-2.01-3.61-4.81-3.61-8.38c0-3.89,1.34-6.82,4.02-8.79
		c2.68-1.97,6.29-2.95,10.82-2.95c3.07,0,6.07,0.5,9,1.51v-0.62c0-4.49-2.63-6.73-7.9-6.73c-3.16,0-6.55,0.66-10.17,1.99l-2.61-7.97
		c4.49-1.97,9.25-2.95,14.29-2.95c5.54,0,9.69,1.37,12.44,4.12c2.66,2.66,3.98,6.57,3.98,11.75v21.37h-10.1v-3.98
		C236.97,129.53,233.26,131.08,228.64,131.08z M231.8,123.87c2.43,0,4.4-0.61,5.91-1.82c1.51-1.21,2.27-2.76,2.27-4.64v-1.85
		c-1.97-0.92-4.19-1.37-6.66-1.37c-2.29,0-4.07,0.45-5.32,1.34c-1.26,0.89-1.89,2.19-1.89,3.88c0,1.37,0.53,2.46,1.58,3.26
		C228.73,123.47,230.1,123.87,231.8,123.87z"/>
	<path class="st0" d="M257.7,89.52v-9.27h10.99v9.27H257.7z M257.97,130.4V93.57h10.44v36.83H257.97z"/>
	<path class="st0" d="M276.87,130.4V93.57h10.44v5.22c3.07-3.94,6.67-5.91,10.79-5.91c3.94,0,7.01,1.21,9.21,3.64
		c2.2,2.43,3.3,5.77,3.3,10.03v23.84h-10.44v-20.54c0-2.43-0.55-4.28-1.65-5.57c-1.1-1.28-2.66-1.92-4.67-1.92
		c-2.02,0-3.61,0.64-4.78,1.92c-1.17,1.28-1.75,3.14-1.75,5.57v20.54H276.87z"/>
	<path class="st0" d="M318.5,89.52v-9.27h10.99v9.27H318.5z M318.77,130.4V93.57h10.44v36.83H318.77z"/>
	<path class="st0" d="M337.67,130.4V93.57h10.44v5.22c3.07-3.94,6.67-5.91,10.79-5.91c3.94,0,7.01,1.21,9.21,3.64
		c2.2,2.43,3.3,5.77,3.3,10.03v23.84h-10.44v-20.54c0-2.43-0.55-4.28-1.65-5.57c-1.1-1.28-2.66-1.92-4.67-1.92
		c-2.02,0-3.61,0.64-4.78,1.92c-1.17,1.28-1.75,3.14-1.75,5.57v20.54H337.67z"/>
	<path class="st0" d="M395.58,141.53c-6,0-11.43-1.28-16.28-3.85l3.57-7.83c3.99,2.24,8.13,3.37,12.44,3.37
		c7.01,0,10.51-3.34,10.51-10.03v-1.79c-1.65,2.02-3.4,3.52-5.26,4.5c-1.86,0.99-4.11,1.48-6.77,1.48c-4.53,0-8.39-1.56-11.58-4.67
		c-3.18-3.11-4.78-7.33-4.78-12.64c0-5.27,1.6-9.45,4.81-12.54c3.21-3.09,7.05-4.64,11.54-4.64c4.58,0,8.54,1.83,11.89,5.5v-4.81
		h10.44v28.51c0,6.55-1.56,11.38-4.67,14.5C408.16,139.88,402.87,141.53,395.58,141.53z M390.43,116.35
		c1.69,1.58,3.82,2.37,6.39,2.37c2.56,0,4.71-0.8,6.42-2.4c1.72-1.6,2.58-3.69,2.58-6.25c0-2.47-0.86-4.51-2.58-6.11
		c-1.72-1.6-3.86-2.41-6.42-2.41c-2.57,0-4.7,0.8-6.39,2.41c-1.7,1.6-2.54,3.69-2.54,6.25
		C387.89,112.72,388.74,114.77,390.43,116.35z"/>
</g>
<g>
	<path class="st0" d="M16.72,195.4c-4.02,0-7.36-1.39-10.02-4.17c-2.66-2.78-3.99-6.21-3.99-10.28c0-4.02,1.34-7.43,4.03-10.24
		c2.69-2.81,6.05-4.21,10.1-4.21c2.34,0,4.34,0.38,5.99,1.14c1.65,0.76,3.26,1.88,4.83,3.37l-2.08,2.24
		c-2.69-2.55-5.61-3.83-8.78-3.83c-3.09,0-5.66,1.1-7.72,3.31c-2.06,2.21-3.09,4.95-3.09,8.22c0,3.25,1.04,5.98,3.11,8.2
		s4.64,3.33,7.7,3.33c1.81,0,3.41-0.33,4.79-1c1.38-0.67,2.79-1.68,4.23-3.03l2.08,2.2c-1.57,1.57-3.22,2.75-4.95,3.55
		C21.22,195,19.15,195.4,16.72,195.4z"/>
	<path class="st0" d="M33.53,185.86c0.21,2.1,1,3.77,2.38,5.01s3,1.86,4.89,1.86c2.47,0,4.64-0.97,6.51-2.91l1.92,1.72
		c-2.32,2.58-5.15,3.87-8.5,3.87c-2.9,0-5.34-1-7.32-3.01s-2.97-4.6-2.97-7.76c0-3.01,0.94-5.55,2.83-7.64
		c1.89-2.09,4.24-3.13,7.06-3.13c2.95,0,5.29,1.04,7.03,3.11c1.73,2.08,2.59,4.68,2.59,7.82c0,0.4-0.01,0.76-0.04,1.08H33.53z
		 M33.53,183.39h13.29c-0.19-2-0.85-3.65-1.98-4.97c-1.13-1.32-2.67-1.98-4.61-1.98c-1.76,0-3.26,0.65-4.51,1.96
		C34.47,179.7,33.74,181.37,33.53,183.39z"/>
	<path class="st0" d="M54.52,194.92v-20.64h3.07v5.39c0.8-1.78,1.93-3.21,3.39-4.27c1.46-1.06,3.14-1.56,5.03-1.48v3.31h-0.24
		c-2.37,0-4.32,0.83-5.87,2.47c-1.54,1.65-2.31,3.98-2.31,6.99v8.22H54.52z"/>
	<path class="st0" d="M76.8,195.28c-1.78,0-3.2-0.47-4.25-1.42c-1.05-0.94-1.58-2.42-1.58-4.41V177h-2.87v-2.71h2.87v-6.23h3.07
		v6.23h6.55V177h-6.55v12.05c0,2.29,1.16,3.43,3.47,3.43c1.01,0,2.01-0.24,2.99-0.72v2.63C79.39,194.99,78.15,195.28,76.8,195.28z"
		/>
	<path class="st0" d="M85.3,169.78v-3.39h3.51v3.39H85.3z M85.5,194.92v-20.64h3.07v20.64H85.5z"/>
	<path class="st0" d="M96.07,194.92V177h-2.83v-2.67h2.83v-1.8c0-2.34,0.6-4.11,1.8-5.31c1.06-1.06,2.54-1.6,4.43-1.6
		c1.3,0,2.44,0.17,3.39,0.52v2.67c-1.22-0.35-2.22-0.52-2.99-0.52c-2.4,0-3.59,1.46-3.59,4.39v1.68h6.55V177h-6.51v17.92H96.07z
		 M109.65,169.78v-3.39h3.51v3.39H109.65z M109.88,194.92v-20.64h3.03v20.64H109.88z"/>
	<path class="st0" d="M121.14,185.86c0.21,2.1,1,3.77,2.38,5.01s3,1.86,4.89,1.86c2.47,0,4.64-0.97,6.51-2.91l1.92,1.72
		c-2.32,2.58-5.15,3.87-8.5,3.87c-2.9,0-5.34-1-7.32-3.01s-2.97-4.6-2.97-7.76c0-3.01,0.94-5.55,2.83-7.64
		c1.89-2.09,4.24-3.13,7.06-3.13c2.95,0,5.29,1.04,7.03,3.11c1.73,2.08,2.59,4.68,2.59,7.82c0,0.4-0.01,0.76-0.04,1.08H121.14z
		 M121.14,183.39h13.29c-0.19-2-0.85-3.65-1.98-4.97c-1.13-1.32-2.67-1.98-4.61-1.98c-1.76,0-3.26,0.65-4.51,1.96
		C122.08,179.7,121.35,181.37,121.14,183.39z"/>
	<path class="st0" d="M150.8,195.36c-2.63,0-4.94-0.98-6.91-2.93c-1.97-1.96-2.95-4.57-2.95-7.84c0-3.22,0.98-5.81,2.95-7.78
		c1.97-1.97,4.27-2.95,6.91-2.95c3.25,0,5.88,1.46,7.9,4.39v-12.45h3.07v29.14h-3.07v-4.15
		C156.62,193.83,153.99,195.36,150.8,195.36z M151.36,192.61c2,0,3.74-0.76,5.23-2.27c1.49-1.52,2.24-3.45,2.24-5.79
		c0-2.29-0.75-4.18-2.24-5.69c-1.49-1.5-3.23-2.26-5.23-2.26c-2.08,0-3.81,0.73-5.19,2.18c-1.38,1.45-2.08,3.4-2.08,5.85
		c0,2.37,0.7,4.29,2.12,5.77C147.62,191.87,149.33,192.61,151.36,192.61z"/>
	<path class="st0" d="M189.99,195.36c-3.25,0-5.88-1.46-7.9-4.39v3.95h-3.07v-29.14h3.07v12.65c2.08-3.06,4.71-4.59,7.9-4.59
		c2.63,0,4.94,0.98,6.91,2.93s2.95,4.57,2.95,7.84c0,3.22-0.98,5.81-2.95,7.78C194.93,194.38,192.63,195.36,189.99,195.36z
		 M189.43,192.61c2.08,0,3.8-0.72,5.19-2.17c1.38-1.45,2.08-3.4,2.08-5.85c0-2.37-0.71-4.29-2.12-5.77
		c-1.41-1.48-3.13-2.22-5.15-2.22c-2,0-3.74,0.76-5.23,2.28c-1.49,1.52-2.24,3.43-2.24,5.75c0,2.31,0.74,4.22,2.24,5.73
		C185.7,191.86,187.44,192.61,189.43,192.61z"/>
	<path class="st0" d="M206.92,201.43c-1.49,0-2.95-0.35-4.39-1.04l1.04-2.44c0.98,0.51,2.06,0.76,3.23,0.76
		c0.93,0,1.72-0.29,2.36-0.86c0.64-0.57,1.26-1.58,1.88-3.01l-9.38-20.56h3.39l7.5,17.2l6.62-17.2h3.27l-8.66,21.31
		c-0.88,2.1-1.85,3.6-2.91,4.49S208.49,201.43,206.92,201.43z"/>
	<path class="st0" d="M244.12,195.32c-3.73,0-6.6-1.65-8.62-4.95l2.28-1.96c0.9,1.36,1.84,2.36,2.81,3.01s2.16,0.98,3.57,0.98
		c1.62,0,2.94-0.58,3.95-1.74c1.01-1.16,1.52-2.81,1.52-4.97v-18.72h3.19v18.68c0,3.19-0.85,5.64-2.55,7.34
		C248.67,194.55,246.62,195.32,244.12,195.32z"/>
	<path class="st0" d="M260.8,185.86c0.21,2.1,1,3.77,2.38,5.01c1.37,1.24,3,1.86,4.89,1.86c2.47,0,4.64-0.97,6.51-2.91l1.92,1.72
		c-2.31,2.58-5.15,3.87-8.5,3.87c-2.9,0-5.34-1-7.32-3.01s-2.97-4.6-2.97-7.76c0-3.01,0.94-5.55,2.83-7.64s4.24-3.13,7.07-3.13
		c2.95,0,5.29,1.04,7.02,3.11c1.73,2.08,2.59,4.68,2.59,7.82c0,0.4-0.01,0.76-0.04,1.08H260.8z M260.8,183.39h13.29
		c-0.19-2-0.84-3.65-1.98-4.97c-1.13-1.32-2.67-1.98-4.61-1.98c-1.76,0-3.26,0.65-4.51,1.96S261.01,181.37,260.8,183.39z"/>
	<path class="st0" d="M288.7,195.28c-1.78,0-3.2-0.47-4.25-1.42c-1.05-0.94-1.58-2.42-1.58-4.41V177H280v-2.71h2.87v-6.23h3.07v6.23
		h6.55V177h-6.55v12.05c0,2.29,1.16,3.43,3.47,3.43c1.01,0,2.01-0.24,2.99-0.72v2.63C291.29,194.99,290.06,195.28,288.7,195.28z"/>
	<path class="st0" d="M297.64,194.92v-27.94h11.9c3.27,0,5.71,0.83,7.3,2.47c1.2,1.25,1.8,2.77,1.8,4.55c0,3.03-1.48,5.19-4.43,6.47
		c3.99,1.2,5.99,3.47,5.99,6.83c0,2.37-0.92,4.23-2.75,5.59c-1.84,1.36-4.3,2.04-7.38,2.04H297.64z M300.75,179.44h8.26
		c1.94,0,3.5-0.44,4.67-1.32c1.17-0.88,1.76-2.13,1.76-3.75c0-1.41-0.54-2.52-1.62-3.33c-1.08-0.81-2.6-1.22-4.57-1.22h-8.5V179.44z
		 M300.75,192.09h9.38c2.13,0,3.8-0.45,5.03-1.34c1.22-0.89,1.84-2.14,1.84-3.73c0-1.54-0.63-2.73-1.9-3.55
		c-1.26-0.82-3.11-1.24-5.53-1.24h-8.82V192.09z"/>
	<path class="st0" d="M325.14,194.92v-20.64h3.07v5.39c0.8-1.78,1.93-3.21,3.39-4.27c1.46-1.06,3.14-1.56,5.03-1.48v3.31h-0.24
		c-2.37,0-4.32,0.83-5.87,2.47c-1.54,1.65-2.32,3.98-2.32,6.99v8.22H325.14z"/>
	<path class="st0" d="M345.66,195.36c-2.1,0-3.91-0.57-5.43-1.72c-1.52-1.14-2.28-2.74-2.28-4.79c0-2.16,0.8-3.82,2.39-4.99
		c1.6-1.17,3.74-1.76,6.43-1.76c2.13,0,4.23,0.29,6.31,0.88v-0.64c0-1.81-0.53-3.19-1.6-4.15c-1.06-0.96-2.57-1.44-4.51-1.44
		c-2.02,0-4.11,0.49-6.27,1.48l-0.92-2.51c2.55-1.17,5.06-1.76,7.5-1.76c2.93,0,5.15,0.76,6.67,2.27c1.44,1.44,2.16,3.46,2.16,6.07
		v12.61h-3.03v-3.07C351.25,194.19,348.77,195.36,345.66,195.36z M346.26,192.89c1.92,0,3.54-0.52,4.87-1.56
		c1.33-1.04,2-2.37,2-3.99v-1.92c-2.02-0.58-4.03-0.88-6.03-0.88c-1.89,0-3.37,0.38-4.43,1.14c-1.06,0.76-1.6,1.79-1.6,3.09
		c0,1.25,0.5,2.25,1.5,2.99C343.56,192.52,344.79,192.89,346.26,192.89z"/>
	<path class="st0" d="M361.9,169.78v-3.39h3.51v3.39H361.9z M362.1,194.92v-20.64h3.07v20.64H362.1z"/>
	<path class="st0" d="M371.52,194.92v-20.64h3.07v3.59c1.62-2.69,3.98-4.03,7.07-4.03c2.45,0,4.38,0.75,5.79,2.25
		c1.41,1.5,2.12,3.51,2.12,6.01v12.81h-3.07v-12.05c0-1.94-0.5-3.47-1.5-4.57c-1-1.1-2.4-1.66-4.21-1.66c-1.78,0-3.26,0.6-4.43,1.8
		c-1.17,1.2-1.76,2.75-1.76,4.67v11.81H371.52z"/>
	<path class="st0" d="M402.14,195.32c-1.49,0-3-0.27-4.53-0.82s-2.87-1.28-4.01-2.22l1.56-2.2c2.34,1.76,4.72,2.63,7.14,2.63
		c1.25,0,2.28-0.31,3.07-0.92c0.8-0.61,1.2-1.42,1.2-2.43c0-0.93-0.43-1.65-1.3-2.16c-0.87-0.51-2.15-1-3.85-1.48
		c-1.04-0.29-1.86-0.56-2.47-0.8c-0.61-0.24-1.3-0.58-2.08-1.02c-0.77-0.44-1.34-1-1.72-1.68c-0.37-0.68-0.56-1.48-0.56-2.42
		c0-1.76,0.66-3.18,1.98-4.27c1.32-1.09,3-1.64,5.05-1.64c2.66,0,5.14,0.76,7.42,2.28l-1.4,2.31c-2.05-1.33-4.08-2-6.11-2
		c-1.2,0-2.16,0.29-2.89,0.86c-0.73,0.57-1.1,1.31-1.1,2.22c0,0.37,0.11,0.72,0.32,1.04c0.21,0.32,0.45,0.59,0.72,0.8
		c0.27,0.21,0.68,0.44,1.26,0.68s1.03,0.41,1.38,0.52c0.35,0.11,0.89,0.28,1.64,0.52c0.98,0.29,1.8,0.57,2.43,0.84
		c0.64,0.27,1.32,0.62,2.04,1.08c0.72,0.45,1.26,1.02,1.62,1.7c0.36,0.68,0.54,1.47,0.54,2.38c0,1.92-0.69,3.43-2.08,4.53
		C406.02,194.77,404.27,195.32,402.14,195.32z"/>
</g>
<g>
	<g>
		
			<radialGradient id="SVGID_1_" cx="175.1376" cy="131.3393" r="166.5337" gradientTransform="matrix(0.8455 0 0 -0.8455 -28.2472 125.0782)" gradientUnits="userSpaceOnUse">
			<stop  offset="3.435144e-03" style="stop-color:#E44857"/>
			<stop  offset="0.4689" style="stop-color:#C711E1"/>
			<stop  offset="1" style="stop-color:#7F52FF"/>
		</radialGradient>
		<polygon class="st1" points="123.9,131.9 1,131.9 1,8.99 123.9,8.99 61.18,69.54 		"/>
	</g>
</g>
</svg>
