<?xml version="1.0" encoding="utf-8"?>
<!-- Generator: Adobe Illustrator 24.2.0, SVG Export Plug-In . SVG Version: 6.00 Build 0)  -->
<svg version="1.1" id="Social_Icons" xmlns="http://www.w3.org/2000/svg" xmlns:xlink="http://www.w3.org/1999/xlink" x="0px"
	 y="0px" viewBox="0 0 112 128" style="enable-background:new 0 0 112 128;" xml:space="preserve">
<style type="text/css">
	.st0{fill-rule:evenodd;clip-rule:evenodd;fill:#95CF00;}
</style>
<g id="_x31__stroke">
	<g id="Android_1_">
		<path id="Android" class="st0" d="M104.4,40.5c-4.2,0-7.6,3.3-7.6,7.4v31.8c0,4.1,3.4,7.4,7.6,7.4c4.2,0,7.6-3.3,7.6-7.4V47.9
			C112,43.8,108.6,40.5,104.4,40.5z M7.6,40.5c-4.2,0-7.6,3.3-7.6,7.4v31.8c0,4.1,3.4,7.4,7.6,7.4c4.2,0,7.6-3.3,7.6-7.4V47.9
			C15.3,43.8,11.9,40.5,7.6,40.5z M20.9,40.5h-0.5V95c0,4.3,3.6,7.8,8.1,7.8h5.8c-0.2,0.7-0.3,1.3-0.3,2.1v15.7
			c0,4.1,3.4,7.4,7.6,7.4s7.6-3.3,7.6-7.4v-15.7c0-0.7-0.1-1.4-0.3-2.1h14.2c-0.2,0.7-0.3,1.3-0.3,2.1v15.7c0,4.1,3.4,7.4,7.6,7.4
			c4.2,0,7.6-3.3,7.6-7.4v-15.7c0-0.7-0.1-1.4-0.3-2.1h5.8c4.5,0,8.1-3.5,8.1-7.8V40.5H20.9z M73.5,10.7L75,8.6l1.4-2.1l3.2-4.6
			c0.4-0.6,0.2-1.3-0.4-1.7c-0.6-0.4-1.4-0.2-1.8,0.3l-4.8,7.1l-1.5,2.1C66.5,8,61.4,7,56,7c-5.4,0-10.5,1-15.1,2.7l-1.4-2.1L38,5.5
			l-3.4-5c-0.4-0.6-1.2-0.7-1.8-0.3c-0.6,0.4-0.7,1.1-0.4,1.7l3.2,4.6L37,8.6l1.4,2.1c-10.8,4.9-18.1,14.2-18.1,24.8h71.3
			C91.6,24.9,84.3,15.6,73.5,10.7z M40.7,25.6c-2.1,0-3.8-1.7-3.8-3.7s1.7-3.7,3.8-3.7s3.8,1.7,3.8,3.7
			C44.5,23.9,42.8,25.6,40.7,25.6z M71.3,25.6c-2.1,0-3.8-1.7-3.8-3.7s1.7-3.7,3.8-3.7s3.8,1.7,3.8,3.7
			C75.1,23.9,73.4,25.6,71.3,25.6z"/>
	</g>
</g>
</svg>
