<?xml version="1.0" encoding="utf-8"?>
<!-- Generator: Adobe Illustrator 24.2.0, SVG Export Plug-In . SVG Version: 6.00 Build 0)  -->
<svg version="1.1" id="Layer_1" xmlns="http://www.w3.org/2000/svg" xmlns:xlink="http://www.w3.org/1999/xlink" x="0px" y="0px"
	 viewBox="0 0 401.7 490" style="enable-background:new 0 0 401.7 490;" xml:space="preserve">
<style type="text/css">
	.st0{fill:#BAC2D3;}
	.st1{opacity:0.2;}
	.st2{fill:#FFFFFF;}
	.st3{fill:#DAE1EA;}
	.st4{fill:#3F456B;}
	.st5{opacity:0.3;}
</style>
<g id="Colors">
	<path class="st0" d="M383.7,168.7c-36.3,22.6-54.1,55.3-51.2,98.1s26,72.2,64.1,91.2c-1.9,5.5-3.7,11-5.8,16.4
		c-11.6,29-27.9,55.2-48,79.1c-7.7,9.1-16,17.5-26.4,23.5c-14.7,8.6-30.3,9.5-46.2,4.4c-9.8-3.1-19.3-7-29.1-10.3
		c-14.3-4.8-28.8-6.6-43.9-4.4c-14.5,2.1-27.6,8.4-41.2,13c-10.4,3.5-21,6.5-32.3,4.8c-12.3-1.9-22.6-7.9-31.4-16.3
		c-27.3-26-47.5-56.9-62.5-91.3c-8.7-20-15.3-40.8-19.7-62.2c-4.4-20.9-6-42.3-4.7-63.6c2-31.4,11.3-60.5,31.3-85.3
		c16.3-20.7,39.1-35.1,64.8-40.9c13.1-3.1,26.2-4.2,39.2-1.2c9.8,2.2,19.4,5.9,29,9s18.9,6.6,28.4,9.5c5.7,1.7,11.3,0.4,16.8-1.5
		c14.3-5,28.5-10.3,43-14.8c15-4.7,30.2-6.6,46.1-4.3c15,2.2,29.3,6.3,42.8,13.2c14.7,7.5,26.3,18.6,36.1,31.6
		C383.2,167.1,383.5,167.9,383.7,168.7z"/>
	<g id="_编组_" class="st1">
		<path class="st2" d="M353.2,138.5L60.4,431.4c-12.1-17-22.3-35.3-30.6-54.5c-8.7-20-15.3-40.8-19.7-62.2
			c-4.4-20.9-6-42.3-4.7-63.6c2-31.4,11.3-60.5,31.3-85.3c16.3-20.7,39.1-35.1,64.8-40.9c13.1-3.1,26.2-4.2,39.2-1.2
			c9.8,2.2,19.4,5.9,29,9s18.9,6.6,28.4,9.5c5.7,1.7,11.3,0.4,16.8-1.5c14.3-5,28.5-10.3,43-14.8c15-4.7,30.2-6.6,46.1-4.3
			c15,2.2,29.3,6.3,42.8,13.2C348.9,136,351.1,137.2,353.2,138.5z"/>
	</g>
	<path class="st3" d="M201.3,115.5C193.8,71.1,234.3,11,296.9,5c0,5.7,0.4,11.4-0.1,16.9c-2.4,28.7-15.6,52-36.1,71.5
		c-12.7,12.1-27.9,19.7-45.4,21.9C210.7,115.9,206.1,115.5,201.3,115.5z"/>
	<path class="st0" d="M201.3,115.5C193.8,71.1,234.3,11,296.9,5c0,5.7,0.4,11.4-0.1,16.9c-2.4,28.7-15.6,52-36.1,71.5
		c-12.7,12.1-27.9,19.7-45.4,21.9C210.7,115.9,206.1,115.5,201.3,115.5z"/>
	<g class="st1">
		<path class="st4" d="M53,420.5c0,0,37.8,48.5,82.8,44.5c0,0,7,0,27-8s58-17,94,2c0,0,62,33,109.1-36.6c0,0-26.1,42.6-49.1,54.6
			c0,0-24.3,19.7-69.7-3.7c0,0-36-18.7-77.7,2S99.2,490,53,420.5z"/>
	</g>
	<g class="st1">
		<path class="st4" d="M296.1,8c0,0-14.3,76-95.3,108c0,0,42.3,4.3,72.7-35.3S296.1,8,296.1,8z"/>
	</g>
	<g class="st5">
		<path class="st2" d="M201.6,116.2c0,0,14.3-76,95.3-108c0,0-42.3-4.3-72.7,35.3S201.6,116.2,201.6,116.2z"/>
	</g>
	<g class="st5">
		<path class="st2" d="M17.1,197c4.9-9.9,15.9-18.9,24.3-25.6c32.6-25.9,75.5-36.1,115-21.8c21.2,7.7,45.1,22.4,67.7,11.1
			c48.8-24.5,116-34.2,158.6,8.3c0,0-39-64-120.5-44.5l-40,13.5c0,0-17.5,12.5-44.5-2.2S67.4,96,17.1,197z"/>
	</g>
	<g class="st1">
		<path class="st4" d="M370.7,153c0,0-49,29-39,104.5c0,0-3-57.5,51-88.5L370.7,153z"/>
	</g>
	<g class="st5">
		<path class="st2" d="M390.7,375c0,0-77-35-59-114c0,0-7,62,65,97L390.7,375z"/>
	</g>
</g>
<g id="Lines">
	<g id="gfoA91">
		<path class="st4" d="M130.4,490c-2.5,0-5-0.2-7.5-0.6c-12.3-1.9-23.8-7.8-34.1-17.6c-26.3-25.1-47.8-56.4-63.7-92.9
			c-8.8-20.3-15.5-41.5-20-63.2c-4.5-21.3-6.1-43.2-4.8-64.9c2.2-34.4,13-64.1,32.3-88.1c17-21.5,40.8-36.6,67.5-42.7
			c15.5-3.7,29-4.1,41.5-1.2c7.5,1.8,14.9,4.1,22.1,6.7c2.4,0.8,4.9,1.7,7.3,2.5c3.9,1.3,7.9,2.6,11.7,3.9
			c5.5,1.9,11.1,3.8,16.7,5.5c4.4,1.4,9.2,0.1,13.7-1.5c4-1.4,8-2.8,12-4.2c10.1-3.6,20.6-7.3,31.1-10.6c16.9-5.3,32.7-6.8,48.3-4.4
			c16.6,2.4,31.1,6.9,44.3,13.6c14.1,7.2,26.5,18,37.8,33.1c0.6,0.8,1,1.6,1.3,2.6c0.1,0.2,0.2,0.4,0.3,0.7c1,2.3,0.2,4.9-1.9,6.2
			c-35.1,21.9-51.6,53.4-48.9,93.5c2.6,39.3,22.7,67.8,61.4,87.1c2.3,1.1,3.3,3.8,2.5,6.1c-0.6,1.7-1.2,3.4-1.8,5.1
			c-1.3,3.8-2.6,7.6-4.1,11.4c-11.3,28.4-27.8,55.4-48.9,80.4c-6.5,7.8-15.6,17.6-27.7,24.6c-15.3,9-32.2,10.6-50.3,4.9
			c-5.6-1.8-11.1-3.8-16.5-5.8c-4.2-1.5-8.5-3.1-12.7-4.5c-14.4-4.8-28-6.2-41.6-4.2c-9.9,1.5-19,4.9-28.7,8.5
			c-3.8,1.4-7.7,2.9-11.6,4.2C149.1,487.3,140.1,490,130.4,490z M124.7,126.9c-7.4,0.1-14.8,1-22.1,2.8c-24.5,5.6-46.4,19.5-62,39.2
			c-18,22.4-28.1,50.1-30.2,82.5c-1.3,20.9,0.3,41.8,4.6,62.2c4.3,21,10.8,41.5,19.4,61.2C50,410.8,70,440.1,95.7,464.6
			c8.9,8.5,18.3,13.4,28.7,15s20.5-1.4,29.9-4.6c3.8-1.3,7.6-2.7,11.3-4.1c9.8-3.7,19.8-7.5,30.8-9.1c15.2-2.3,30.3-0.8,46.3,4.6
			c4.4,1.5,8.7,3.1,13,4.6c5.2,1.9,10.7,3.9,16,5.6c15.5,4.9,29.3,3.6,42.2-4c8.4-4.9,16.1-11.8,25.1-22.4
			c20.4-24.2,36.3-50.4,47.2-77.7c1.4-3.5,2.7-7.3,3.9-10.9l0.4-1.1c-39-20.8-60.2-52.2-63-93.4c-2.8-42.5,13.8-76.1,49.5-100
			c-9.9-12.6-20.6-21.7-32.6-27.9c-12.2-6.2-25.7-10.4-41.2-12.7c-14.1-2.1-28.5-0.7-43.9,4.1c-10.3,3.2-20.7,6.9-30.8,10.5
			c-4,1.4-8,2.8-12,4.2c-5.8,2-12.7,3.8-19.9,1.6c-5.7-1.8-11.5-3.7-17-5.6c-3.8-1.3-7.7-2.6-11.5-3.9c-2.5-0.8-5-1.7-7.4-2.5
			c-6.9-2.5-14-4.6-21.1-6.4C134.7,127.5,129.7,126.9,124.7,126.9L124.7,126.9z"/>
		<path class="st4" d="M210.2,120.7c-1.5,0-3,0-4.5-0.1s-2.9-0.1-4.4-0.1c-2.4,0-4.5-1.8-4.9-4.2c-3.8-22.7,4.1-49.6,21.1-71.8
			C236.9,19.2,265.7,3,296.4,0c2.7-0.3,5.2,1.7,5.5,4.5c0,0.2,0,0.3,0,0.5c0,1.8,0,3.5,0.1,5.3c0.1,4,0.1,8-0.2,12.1
			c-2.3,28-15,53.1-37.6,74.7c-13.1,12.8-30,21-48.2,23.2C214,120.6,212.1,120.7,210.2,120.7z M205.7,110.6h0.3
			c2.9,0.2,5.8,0.1,8.7-0.2c16.1-2,31-9.2,42.6-20.6c21.1-20.2,32.4-42.5,34.6-68.3c0.2-3.6,0.3-7.3,0.1-10.9
			C266,14.6,242,28.9,225.5,50.6C211.1,69.3,203.9,91.4,205.7,110.6L205.7,110.6z"/>
	</g>
</g>
</svg>
