<svg width="608" height="147" viewBox="0 0 608 147" xmlns="http://www.w3.org/2000/svg" xmlns:xlink="http://www.w3.org/1999/xlink"><defs><path id="a" d="M0 222.825h724.65V0H0z"/></defs><g transform="translate(-59 -38)" fill="none" fill-rule="evenodd"><path d="M213.985 153.12h-10.973v-31.71c0-3.936-.744-6.874-2.232-8.812-1.488-1.936-3.813-2.905-6.975-2.905-4.216 0-7.307 1.37-9.276 4.114-1.968 2.745-2.952 7.309-2.952 13.694v25.619H170.65v-51.425h8.555l1.534 6.742h.558c1.425-2.448 3.495-4.34 6.207-5.672 2.712-1.333 5.696-2 8.95-2 7.905 0 13.143 2.697 15.717 8.09h.743c1.519-2.541 3.657-4.525 6.417-5.951 2.758-1.425 5.92-2.138 9.485-2.138 6.138 0 10.608 1.55 13.414 4.649 2.805 3.1 4.208 7.828 4.208 14.182v33.523h-10.927v-31.71c0-3.936-.752-6.874-2.255-8.812-1.503-1.936-3.835-2.905-6.997-2.905-4.247 0-7.355 1.324-9.323 3.975-1.97 2.65-2.952 6.72-2.952 12.206v27.246zm92.388-34.36c0-8.866-2.225-15.546-6.672-20.04-4.449-4.495-11.059-6.742-19.83-6.742h-11.485v54.308h9.625c9.422 0 16.506-2.316 21.248-6.952 4.743-4.635 7.114-11.492 7.114-20.574m8.37-.279c0 11.22-3.046 19.8-9.137 25.734-6.091 5.939-14.856 8.904-26.294 8.904h-18.831V85.142h20.831c10.57 0 18.784 2.93 24.643 8.788 5.858 5.858 8.788 14.041 8.788 24.551m31.374-10.788c-4.092 0-7.354 1.333-9.788 4-2.433 2.665-3.866 6.354-4.3 11.065h26.642c0-4.867-1.085-8.594-3.255-11.182-2.17-2.589-5.27-3.883-9.3-3.883m2.093 46.356c-7.532 0-13.476-2.293-17.831-6.88-4.355-4.588-6.532-10.957-6.532-19.11 0-8.215 2.022-14.74 6.067-19.575 4.045-4.836 9.477-7.254 16.297-7.254 6.386 0 11.438 2.1 15.158 6.3 3.72 4.201 5.58 9.742 5.58 16.623v4.883h-35.105c.154 5.982 1.666 10.523 4.533 13.623 2.867 3.1 6.905 4.648 12.113 4.648 5.486 0 10.91-1.144 16.273-3.439v6.881c-2.728 1.177-5.31 2.023-7.742 2.535-2.433.51-5.37.765-8.811.765m41.246-.929l-19.342-50.96h8.276l10.972 30.224c2.481 7.066 3.938 11.654 4.371 13.76h.373c.34-1.641 1.418-5.044 3.231-10.204 1.814-5.162 5.883-16.42 12.205-33.78h8.277l-19.343 50.96h-9.02zm67.425-61.886c-7.471 0-13.367 2.487-17.691 7.462-4.325 4.976-6.487 11.787-6.487 20.436 0 8.896 2.084 15.769 6.254 20.62 4.168 4.853 10.112 7.278 17.83 7.278 4.743 0 10.153-.853 16.229-2.558v6.928c-4.713 1.767-10.525 2.65-17.437 2.65-10.012 0-17.738-3.037-23.178-9.113-5.44-6.075-8.16-14.707-8.16-25.9 0-7.003 1.309-13.141 3.929-18.411 2.619-5.27 6.4-9.33 11.345-12.182 4.944-2.852 10.763-4.278 17.459-4.278 7.13 0 13.36 1.302 18.69 3.906l-3.346 6.788c-5.146-2.418-10.291-3.626-15.437-3.626m42.22 56.446c4.805 0 8.579-1.316 11.322-3.953 2.743-2.632 4.116-6.322 4.116-11.065v-4.602l-7.72.323c-6.136.22-10.562 1.172-13.274 2.861-2.713 1.69-4.068 4.317-4.068 7.881 0 2.79.845 4.912 2.534 6.37 1.69 1.457 4.053 2.185 7.09 2.185zm17.437 5.44l-1.535-7.251h-.372c-2.542 3.19-5.076 5.352-7.601 6.483-2.528 1.133-5.681 1.697-9.462 1.697-5.054 0-9.014-1.3-11.88-3.904-2.868-2.603-4.301-6.309-4.301-11.113 0-10.29 8.23-15.684 24.69-16.18l8.647-.279v-3.162c0-3.999-.86-6.951-2.58-8.859-1.721-1.906-4.472-2.859-8.253-2.859-4.247 0-9.052 1.302-14.414 3.907l-2.371-5.906c2.51-1.364 5.26-2.434 8.253-3.209a35.784 35.784 0 0 1 8.997-1.162c6.075 0 10.578 1.349 13.507 4.046 2.929 2.697 4.394 7.02 4.394 12.972v34.778h-5.72zm84.033 0v-33.15c0-4.061-.868-7.108-2.604-9.138-1.736-2.03-4.433-3.046-8.09-3.046-4.805 0-8.355 1.38-10.648 4.138-2.294 2.76-3.44 7.007-3.44 12.74v28.456h-7.719v-33.15c0-4.061-.868-7.108-2.603-9.138-1.737-2.03-4.449-3.046-8.137-3.046-4.836 0-8.378 1.45-10.625 4.347-2.248 2.899-3.37 7.649-3.37 14.253v26.734h-7.719v-50.96h6.276l1.256 6.975h.372c1.456-2.48 3.511-4.417 6.16-5.812 2.651-1.395 5.62-2.093 8.905-2.093 7.965 0 13.174 2.883 15.623 8.648h.372c1.518-2.665 3.72-4.773 6.602-6.323 2.883-1.55 6.168-2.325 9.857-2.325 5.765 0 10.082 1.48 12.95 4.44 2.866 2.96 4.3 7.696 4.3 14.206v33.244h-7.718zm43.637-45.334c-5.207 0-8.974 1.44-11.299 4.324-2.324 2.883-3.517 7.47-3.58 13.764v1.72c0 7.16 1.193 12.284 3.58 15.368 2.387 3.084 6.215 4.625 11.486 4.625 4.4 0 7.849-1.781 10.344-5.346 2.495-3.564 3.743-8.478 3.743-14.74 0-6.354-1.248-11.23-3.743-14.624s-6.006-5.091-10.531-5.091m1.116 46.264c-3.317 0-6.346-.612-9.09-1.836-2.743-1.225-5.045-3.108-6.905-5.65h-.558c.373 2.976.558 5.798.558 8.462v20.97h-7.718V102.16h6.277l1.069 6.975h.372c1.983-2.79 4.293-4.805 6.929-6.045 2.634-1.24 5.656-1.86 9.066-1.86 6.757 0 11.973 2.31 15.646 6.928 3.674 4.62 5.509 11.099 5.509 19.437 0 8.369-1.867 14.87-5.602 19.504-3.735 4.634-8.92 6.95-15.553 6.95" fill="#FFF"/><mask id="b" fill="#fff"><use xlink:href="#a"/></mask><path fill="#FFF" mask="url(#b)" d="M59.172 45.537h7.25v-7.25h-7.25zm11.396 0h7.25v-7.25h-7.25zm11.395 0h7.25v-7.25h-7.25zm11.396 0h7.25v-7.25h-7.25zm11.396 0h7.25v-7.25h-7.25zm11.396 0h7.25v-7.25h-7.25zm11.396 0h7.25v-7.25h-7.25zM59.172 57.121h7.25v-7.25h-7.25zm11.396 0h7.25v-7.25h-7.25zm11.395 0h7.25v-7.25h-7.25zm11.396 0h7.25v-7.25h-7.25zm11.396 0h7.25v-7.25h-7.25zm11.396 0h7.25v-7.25h-7.25zm11.396 0h7.25v-7.25h-7.25zM59.172 68.704h7.25v-7.25h-7.25zm68.375 0h7.25v-7.25h-7.25zM59.172 80.287h7.25v-7.25h-7.25zm68.375 0h7.25v-7.25h-7.25zM59.172 91.871h7.25v-7.25h-7.25zm68.375 0h7.25v-7.25h-7.25zm-68.375 11.583h7.25v-7.25h-7.25zm68.375 0h7.25v-7.25h-7.25zm-68.375 11.584h7.25v-7.25h-7.25zm68.375 0h7.25v-7.25h-7.25zM59.172 126.62h7.25v-7.25h-7.25zm68.375 0h7.25v-7.25h-7.25zm-68.375 11.584h7.25v-7.25h-7.25zm68.375 0h7.25v-7.25h-7.25zm-68.375 11.584h7.25v-7.25h-7.25zm68.375 0h7.25v-7.25h-7.25zM59.172 161.37h7.25v-7.25h-7.25zm11.396 0h7.25v-7.25h-7.25zm11.395 0h7.25v-7.25h-7.25zm11.396 0h7.25v-7.25h-7.25zm11.396 0h7.25v-7.25h-7.25zm11.396 0h7.25v-7.25h-7.25zm11.396 0h7.25v-7.25h-7.25zm-68.375 11.584h7.25v-7.25h-7.25zm11.396 0h7.25v-7.25h-7.25zm11.395 0h7.25v-7.25h-7.25zm22.792 0h7.25v-7.25h-7.25zm11.396 0h7.25v-7.25h-7.25zm11.396 0h7.25v-7.25h-7.25zm-68.375 11.584h7.25v-7.25h-7.25zm11.396 0h7.25v-7.25h-7.25zm11.395 0h7.25v-7.25h-7.25zm11.396 0h7.25v-7.25h-7.25zm11.396 0h7.25v-7.25h-7.25zm11.396 0h7.25v-7.25h-7.25zm11.396 0h7.25v-7.25h-7.25z"/></g></svg>