<svg id="Layer_1" data-name="Layer 1" xmlns="http://www.w3.org/2000/svg" xmlns:xlink="http://www.w3.org/1999/xlink" width="360.44219" height="166.7207" viewBox="0 0 360.44219 166.7207">
  <defs>
    <linearGradient id="linear-gradient" x1="-17.74382" y1="383.73929" x2="80.3285" y2="481.81161" gradientTransform="matrix(1, 0, 0, -1, 0, 481.67444)" gradientUnits="userSpaceOnUse">
      <stop offset="0.10753" stop-color="#c757bc"/>
      <stop offset="0.17288" stop-color="#cd5ca9"/>
      <stop offset="0.49191" stop-color="#e8744f"/>
      <stop offset="0.71582" stop-color="#f88316"/>
      <stop offset="0.82323" stop-color="#ff8900"/>
    </linearGradient>
    <linearGradient id="linear-gradient-2" x1="33.63518" y1="356.22989" x2="81.43757" y2="404.03229" gradientTransform="matrix(1, 0, 0, -1, 0, 481.67444)" gradientUnits="userSpaceOnUse">
      <stop offset="0.2957" stop-color="#00afff"/>
      <stop offset="0.69363" stop-color="#5282ff"/>
      <stop offset="1" stop-color="#945dff"/>
    </linearGradient>
    <linearGradient id="linear-gradient-3" x1="-1.2656" y1="451.54731" x2="32.26834" y2="485.08125" xlink:href="#linear-gradient-2"/>
  </defs>
  <title>Kotlin_certified</title>
  <g>
    <g>
      <path d="M133.77227,1.80273h9.25586V20.19531L159.97784,1.80273h11.35938L154.14776,19.6543,172.05889,43.876H160.93926L147.89678,25.96484l-4.86865,5.04883V43.876h-9.25586Z" fill="#30324e"/>
      <path d="M171.82257,27.94824v-.12012c0-9.25586,7.45313-16.76953,17.49023-16.76953,9.97754,0,17.36963,7.39355,17.36963,16.64941v.12012c0,9.25586-7.45215,16.76953-17.48975,16.76953C179.21514,44.59766,171.82257,37.2041,171.82257,27.94824Zm25.84473,0v-.12012c0-4.748-3.42578-8.89551-8.47461-8.89551-5.229,0-8.35449,4.02734-8.35449,8.77539v.12012c0,4.748,3.42578,8.89551,8.47461,8.89551C194.5418,36.72363,197.66729,32.69629,197.66729,27.94824Z" fill="#30324e"/>
      <path d="M213.29766,34.74023V19.47363H209.451V11.66016h3.84668V3.42578h9.13574v8.23438h7.57324v7.81348h-7.57324V33.2373c0,2.10352.90137,3.126,2.94531,3.126a9.28784,9.28784,0,0,0,4.50781-1.14258v7.333a13.47434,13.47434,0,0,1-7.21289,1.86328C217.0838,44.417,213.29766,42.19336,213.29766,34.74023Z" fill="#30324e"/>
      <path d="M235.658,0h9.13574V43.876H235.658Z" fill="#30324e"/>
      <path d="M252.06817,0h9.61621V8.11426h-9.61621Zm.24023,11.66016h9.13574V43.876h-9.13574Z" fill="#30324e"/>
      <path d="M268.53692,11.66016h9.13672v4.56738c2.10352-2.7041,4.80762-5.16895,9.43555-5.16895,6.91211,0,10.93945,4.56836,10.93945,11.96094V43.876H288.9129V25.9043c0-4.32715-2.04395-6.55078-5.5293-6.55078-3.48633,0-5.71,2.22363-5.71,6.55078V43.876h-9.13672Z" fill="#30324e"/>
      <path d="M143.56915,72.3877H130.7669V63.85254h34.86084V72.3877H152.8255v33.53809h-9.25635Z" fill="#30324e"/>
      <path d="M166.65264,73.71h9.13623v6.49121c1.86328-4.44824,4.86816-7.333,10.27783-7.09277V82.665h-.481c-6.0708,0-9.79687,3.667-9.79687,11.36035v11.90039h-9.13623Z" fill="#30324e"/>
      <path d="M186.8504,96.66992V96.5498c0-7.03223,5.34961-10.27832,12.98291-10.27832a22.895,22.895,0,0,1,7.87354,1.32227v-.541c0-3.78613-2.34473-5.88965-6.91211-5.88965a23.69679,23.69679,0,0,0-8.89551,1.74316l-2.28369-6.97266a28.42614,28.42614,0,0,1,12.50146-2.584c4.98828,0,8.59473,1.32227,10.87891,3.60547,2.4043,2.4043,3.48633,5.95117,3.48633,10.27832v18.69238H207.6463v-3.48633a12.3831,12.3831,0,0,1-9.73633,4.08691C191.83917,106.52637,186.8504,103.041,186.8504,96.66992ZM207.827,94.56641v-1.623a14.15869,14.15869,0,0,0-5.83008-1.20215c-3.90674,0-6.311,1.5625-6.311,4.44727v.12109c0,2.46387,2.04346,3.90625,4.98877,3.90625C204.94219,100.21582,207.827,97.87207,207.827,94.56641Z" fill="#30324e"/>
      <path d="M223.03594,62.0498h9.61719v8.11426h-9.61719ZM223.27618,73.71h9.13574v32.21582h-9.13574Z" fill="#30324e"/>
      <path d="M239.50567,73.71h9.13574v4.56738c2.10352-2.7041,4.80859-5.16895,9.43652-5.16895,6.91211,0,10.93848,4.56836,10.93848,11.96094v20.85645h-9.13574V87.9541c0-4.32715-2.043-6.55078-5.5293-6.55078s-5.71,2.22363-5.71,6.55078v17.97168h-9.13574Z" fill="#30324e"/>
      <path d="M275.63165,62.0498h9.61621v8.11426h-9.61621ZM275.87188,73.71h9.13574v32.21582h-9.13574Z" fill="#30324e"/>
      <path d="M292.1004,73.71h9.13672v4.56738c2.10352-2.7041,4.80762-5.16895,9.43555-5.16895,6.91211,0,10.93945,4.56836,10.93945,11.96094v20.85645h-9.13574V87.9541c0-4.32715-2.04395-6.55078-5.5293-6.55078-3.48633,0-5.71,2.22363-5.71,6.55078v17.97168H292.1004Z" fill="#30324e"/>
      <path d="M328.22637,112.29688l3.126-6.85156a21.02207,21.02207,0,0,0,10.87891,2.94434c6.25,0,9.19531-3.00488,9.19531-8.77441V98.05176c-2.7041,3.24609-5.64941,5.22949-10.51855,5.22949-7.5127,0-14.30469-5.46973-14.30469-15.02637v-.12012c0-9.61621,6.91211-15.02637,14.30469-15.02637A13.04367,13.04367,0,0,1,351.30645,77.917V73.71h9.13574V98.65332c0,5.76953-1.38184,9.97754-4.08691,12.68164-3.00488,3.00586-7.63281,4.32813-13.88379,4.32813A30.56443,30.56443,0,0,1,328.22637,112.29688Zm23.2002-24.042v-.12012c0-4.3877-3.42578-7.45312-7.873-7.45312-4.44824,0-7.81445,3.06543-7.81445,7.45313v.12012c0,4.44824,3.36621,7.45313,7.81445,7.45313C348.00079,95.708,351.42657,92.64258,351.42657,88.25488Z" fill="#30324e"/>
    </g>
    <g>
      <polygon points="52.914 1.039 0 56.684 0 106.43 52.838 53.499 105.391 1.039 52.914 1.039" fill="url(#linear-gradient)"/>
      <polygon id="_Path_" data-name=" Path " points="0 106.43 52.838 53.5 105.391 106.43 0 106.43" fill="url(#linear-gradient-2)"/>
      <polygon points="0 1.039 52.914 1.039 0 56.684 0 1.039" fill="url(#linear-gradient-3)"/>
    </g>
    <g>
      <path d="M1.41925,149.69141V149.625a11.75212,11.75212,0,0,1,11.79687-12.06348,12.14177,12.14177,0,0,1,9.09766,3.69922l-1.7998,1.93262a10.13687,10.13687,0,0,0-7.33105-3.19922c-5.166,0-9.03125,4.19922-9.03125,9.56445v.06641c0,5.39844,3.89844,9.63086,9.03125,9.63086,3.19922,0,5.29883-1.23242,7.53125-3.36523l1.73242,1.69922a12.1478,12.1478,0,0,1-9.33105,4.09961A11.63525,11.63525,0,0,1,1.41925,149.69141Z" fill="#30324e"/>
      <path d="M25.345,152.72461v-.06641c0-4.96582,3.499-8.96484,8.26465-8.96484,5.09863,0,8.03125,4.06543,8.03125,9.09766a6.71614,6.71614,0,0,1-.0332.833H27.94464a6.01642,6.01642,0,0,0,6.06445,5.832,7.13049,7.13049,0,0,0,5.43262-2.43262l1.59961,1.43262a8.89344,8.89344,0,0,1-7.09863,3.2334A8.56369,8.56369,0,0,1,25.345,152.72461Zm13.69629-1c-.2666-3.13281-2.06641-5.86523-5.499-5.86523-2.999,0-5.26465,2.5-5.59766,5.86523Z" fill="#30324e"/>
      <path d="M46.139,144.05957H48.7044v4.499c1.2666-2.86523,3.76563-4.93164,7.03223-4.79883v2.7666h-.2002c-3.76562,0-6.832,2.69922-6.832,7.89746v6.86523H46.139Z" fill="#30324e"/>
      <path d="M60.5335,156.72363V146.32617H58.13409v-2.2666H60.5335v-5.19824h2.56641v5.19824h5.46484v2.2666H63.09991v10.06445c0,2.09961,1.166,2.86523,2.89941,2.86523a5.38906,5.38906,0,0,0,2.499-.59961v2.19922a6.45031,6.45031,0,0,1-3.09961.7334C62.63311,161.58887,60.5335,160.22266,60.5335,156.72363Z" fill="#30324e"/>
      <path d="M73.16339,137.46191H76.096v2.832H73.16339Zm.167,6.59766h2.56543v17.22949H73.33038Z" fill="#30324e"/>
      <path d="M82.82647,146.32617H80.46026v-2.23242h2.36621v-1.5a6.079,6.079,0,0,1,1.5-4.43262,5.073,5.073,0,0,1,3.69922-1.333,7.80067,7.80067,0,0,1,2.833.43359v2.23242a8.57948,8.57948,0,0,0-2.5-.43262c-1.999,0-2.999,1.19922-2.999,3.665V144.127h5.46484v2.19922H85.39288v14.96289H82.82647Zm11.33105-8.86426h2.93262v2.832H94.15753Zm.2002,6.59766h2.53223v17.22949H94.35772Z" fill="#30324e"/>
      <path d="M101.82061,152.72461v-.06641c0-4.96582,3.499-8.96484,8.26465-8.96484,5.09863,0,8.03125,4.06543,8.03125,9.09766a6.71615,6.71615,0,0,1-.0332.833H104.41925a6.01786,6.01786,0,0,0,6.06543,5.832,7.13049,7.13049,0,0,0,5.43262-2.43262l1.59961,1.43262a8.89344,8.89344,0,0,1-7.09863,3.2334A8.56369,8.56369,0,0,1,101.82061,152.72461Zm13.69629-1c-.2666-3.13281-2.06641-5.86523-5.498-5.86523-3,0-5.26562,2.5-5.59961,5.86523Z" fill="#30324e"/>
      <path d="M121.61456,152.72461v-.06641c0-5.63281,4.09863-8.96484,8.23145-8.96484a7.77153,7.77153,0,0,1,6.59863,3.666V136.96191h2.56543v24.32715h-2.56543v-3.46582a7.74607,7.74607,0,0,1-6.59863,3.832C125.71319,161.65527,121.61456,158.38965,121.61456,152.72461Zm14.92969-.0332V152.625a6.40279,6.40279,0,0,0-6.23145-6.63184c-3.333,0-6.06543,2.46582-6.06543,6.63184v.06641c0,4.06543,2.79883,6.665,6.06543,6.665A6.433,6.433,0,0,0,136.54425,152.69141Z" fill="#30324e"/>
      <path d="M157.30206,157.99023v3.29883h-2.56543V136.96191h2.56543v10.56348a7.74817,7.74817,0,0,1,6.59863-3.832c4.13281,0,8.23145,3.26563,8.23145,8.93164v.06641c0,5.63184-4.06543,8.96387-8.23145,8.96387A7.773,7.773,0,0,1,157.30206,157.99023Zm12.19727-5.26562v-.06641c0-4.06641-2.79883-6.665-6.06543-6.665a6.42406,6.42406,0,0,0-6.23145,6.63184v.06641a6.41187,6.41187,0,0,0,6.23145,6.665C166.7669,159.35645,169.49932,156.89063,169.49932,152.72461Z" fill="#30324e"/>
      <path d="M188.92706,144.05957h2.73242l-7.23145,17.7959c-1.46582,3.56641-3.13184,4.86523-5.73145,4.86523a7.82906,7.82906,0,0,1-3.666-.86621l.86621-2.03223a5.39563,5.39563,0,0,0,2.69922.63281c1.5332,0,2.5-.7998,3.5332-3.23242l-7.832-17.16309h2.833l6.26465,14.36328Z" fill="#30324e"/>
      <path d="M203.88751,157.49023l1.90039-1.63281c1.43164,2.166,2.89844,3.332,5.332,3.332,2.63281,0,4.56445-1.89941,4.56445-5.59863V137.96094h2.666v15.59668a8.41365,8.41365,0,0,1-2.13281,6.13184,7.14684,7.14684,0,0,1-5.13086,1.93262A7.98839,7.98839,0,0,1,203.88751,157.49023Z" fill="#30324e"/>
      <path d="M223.08087,152.72461v-.06641c0-4.96582,3.5-8.96484,8.26563-8.96484,5.09766,0,8.03125,4.06543,8.03125,9.09766a6.71615,6.71615,0,0,1-.0332.833H225.68048a6.01764,6.01764,0,0,0,6.06445,5.832,7.131,7.131,0,0,0,5.43359-2.43262l1.59961,1.43262a8.89688,8.89688,0,0,1-7.09961,3.2334A8.56369,8.56369,0,0,1,223.08087,152.72461Zm13.69727-1c-.26758-3.13281-2.06641-5.86523-5.5-5.86523-2.998,0-5.26367,2.5-5.59766,5.86523Z" fill="#30324e"/>
      <path d="M244.77423,156.72363V146.32617h-2.39844v-2.2666h2.39844v-5.19824h2.56641v5.19824h5.46484v2.2666h-5.46484v10.06445c0,2.09961,1.166,2.86523,2.90039,2.86523a5.38527,5.38527,0,0,0,2.498-.59961v2.19922a6.44474,6.44474,0,0,1-3.09961.7334C246.87384,161.58887,244.77423,160.22266,244.77423,156.72363Z" fill="#30324e"/>
      <path d="M257.77032,137.96094H267.702a8.56371,8.56371,0,0,1,6.09766,2.06641,5.181,5.181,0,0,1,1.5,3.73242v.06641a5.62981,5.62981,0,0,1-3.69922,5.39941c2.76758.833,5,2.43262,5,5.63184v.06641c0,3.999-3.36719,6.36523-8.46484,6.36523H257.77032Zm14.86328,6.166c0-2.2998-1.832-3.7998-5.16406-3.7998h-7.09961v8.03223h6.89844c3.166,0,5.36523-1.43359,5.36523-4.166Zm-4.89844,6.56445h-7.36523v8.23145h7.832c3.5332,0,5.73242-1.56641,5.73242-4.165v-.06738C273.93438,152.1582,271.80157,150.69141,267.73516,150.69141Z" fill="#30324e"/>
      <path d="M281.39727,144.05957h2.56445v4.499c1.26758-2.86523,3.76563-4.93164,7.0332-4.79883v2.7666h-.20117c-3.76562,0-6.832,2.69922-6.832,7.89746v6.86523h-2.56445Z" fill="#30324e"/>
      <path d="M292.76055,156.29v-.06641c0-3.63281,2.998-5.56543,7.36328-5.56543a18.26376,18.26376,0,0,1,5.29883.7334V150.792c0-3.09961-1.89844-4.69922-5.13086-4.69922a11.99524,11.99524,0,0,0-5.23242,1.2666l-.76562-2.09961a14.22513,14.22513,0,0,1,6.26367-1.43359,7.56262,7.56262,0,0,1,5.56641,1.90039,6.79941,6.79941,0,0,1,1.76563,5.03125v10.53125h-2.4668v-2.59961a7.54846,7.54846,0,0,1-6.23047,2.96582C295.993,161.65527,292.76055,159.82227,292.76055,156.29Zm12.69531-1.333v-1.666a17.97164,17.97164,0,0,0-5.06445-.7334c-3.23242,0-5.03125,1.39941-5.03125,3.56641v.06641c0,2.166,1.998,3.43262,4.332,3.43262C302.85821,159.623,305.45587,157.68945,305.45587,154.957Z" fill="#30324e"/>
      <path d="M313.42071,137.46191h2.93164v2.832h-2.93164Zm.166,6.59766h2.56641v17.22949h-2.56641Z" fill="#30324e"/>
      <path d="M322.118,144.05957h2.56445v3a6.52778,6.52778,0,0,1,5.89844-3.36621c4.166,0,6.59961,2.79883,6.59961,6.89844v10.69727h-2.56641V151.22461c0-3.19922-1.73242-5.19824-4.76562-5.19824a5.07023,5.07023,0,0,0-5.166,5.39844v9.86426H322.118Z" fill="#30324e"/>
      <path d="M341.20977,159.08984l1.30078-1.833a10.06878,10.06878,0,0,0,5.96484,2.19922c2.06641,0,3.56641-1.06641,3.56641-2.73242v-.06641c0-1.7334-2.0332-2.39941-4.29883-3.0332-2.69922-.7666-5.69922-1.69922-5.69922-4.86523v-.06641c0-2.96582,2.4668-4.93262,5.86523-4.93262a11.78759,11.78759,0,0,1,6.19922,1.89941l-1.168,1.93359a9.73883,9.73883,0,0,0-5.09766-1.667c-2.0332,0-3.332,1.06641-3.332,2.5v.06641c0,1.63281,2.13281,2.26563,4.43164,2.96582,2.666.7998,5.53125,1.833,5.53125,4.93262v.06641c0,3.26563-2.69922,5.165-6.13086,5.165A11.85206,11.85206,0,0,1,341.20977,159.08984Z" fill="#30324e"/>
    </g>
  </g>
</svg>
