<?xml version="1.0" encoding="utf-8"?>
<!-- Generator: Adobe Illustrator 25.2.1, SVG Export Plug-In . SVG Version: 6.00 Build 0)  -->
<svg version="1.1" id="Layer_1" xmlns="http://www.w3.org/2000/svg" xmlns:xlink="http://www.w3.org/1999/xlink" x="0px" y="0px"
	 viewBox="0 0 477.2 418.7" style="enable-background:new 0 0 477.2 418.7;" xml:space="preserve">
<style type="text/css">
	.st0{fill:#FF5722;}
</style>
<g id="_x32_3-swift">
	<g>
		<g>
			<g>
				<path class="st0" d="M294.1,0c209.8,140.4,141.8,294.6,141.8,294.6s59.6,66.1,35.6,124c0,0-24.7-40.5-65.8-40.5
					c-39.7,0-63.1,40.5-143.2,40.5C84.4,418.7,0,272.3,0,272.3c160.5,104.1,270.2,30.3,270.2,30.3C197.7,261.4,44,64.1,44,64.1
					c134,112.2,191.8,141.6,191.8,141.6c-34.8-28-131.7-165.2-131.7-165.2c77.5,77.1,231.7,184.7,231.7,184.7
					C380,106.4,294.1,0,294.1,0L294.1,0z"/>
			</g>
		</g>
	</g>
</g>
<g id="Layer_1_1_">
</g>
</svg>
