<?xml version="1.0" encoding="utf-8"?>
<!-- Generator: Adobe Illustrator 24.2.0, SVG Export Plug-In . SVG Version: 6.00 Build 0)  -->
<svg version="1.1" id="Layer_1" xmlns="http://www.w3.org/2000/svg" xmlns:xlink="http://www.w3.org/1999/xlink" x="0px" y="0px"
	 viewBox="0 0 514.54 130.96" style="enable-background:new 0 0 514.54 130.96;" xml:space="preserve">
<style type="text/css">
	.st0{fill:#E74525;}
	.st1{fill:#E64525;stroke:#E64525;stroke-width:3.2723;stroke-miterlimit:9.7988;}
</style>
<g>
	<path class="st0" d="M127.43,44.66h9.9v18.36l14.46-18.36h9.72L147.83,62.9l15.6,23.52h-10.68l-10.68-15.78L137.33,77v9.42h-9.9
		V44.66z"/>
	<path class="st0" d="M160.97,65.48c0-13.2,8.76-21.3,20.82-21.3s21,8.1,21,21.3c0,13.26-9,21.3-21,21.3
		C169.91,86.78,160.97,78.74,160.97,65.48z M191.57,65.48c0-6.9-3.54-13.08-9.72-13.08c-6.3,0-9.9,5.94-9.9,13.08
		c0,7.2,3.6,13.08,9.9,13.08C188.03,78.56,191.57,72.38,191.57,65.48z"/>
	<path class="st0" d="M207.89,44.66h16.44c11.4,0,19.8,7.56,19.8,20.58c0,13.56-8.94,21.18-20.04,21.18h-16.2V44.66z M217.73,52.64
		v25.8h5.58c6,0,10.32-4.68,10.32-13.38c0-7.68-3.66-12.42-10.02-12.42H217.73z"/>
	<path class="st0" d="M249.65,44.66h27.84v8.16h-18.06v7.5h17.16v7.74h-17.16v10.2h18.06v8.16h-27.84V44.66z"/>
	<path class="st0" d="M282.71,44.66h9.9v41.76h-9.9V44.66z"/>
	<path class="st0" d="M299.03,44.66h9.3l16.08,22.38c0.6,1.14,1.8,3.18,2.04,3.66l0.24-0.06c-0.12-1.02-0.24-3.72-0.24-5.76V44.66
		h8.52v41.76h-9.12l-16.44-22.68c-0.54-1.08-1.68-3-1.92-3.48l-0.24,0.06c0.12,1.26,0.24,3.66,0.24,5.28v20.82h-8.46V44.66z"/>
	<path class="st0" d="M343.07,44.66h3.66V68l19.26-23.34h4.02l-15.18,18.66l17.1,23.1h-4.2l-15.24-20.28l-5.76,7.14v13.14h-3.66
		V44.66z"/>
	<path class="st0" d="M372.77,70.76c0-10.02,6.12-16.08,14.34-16.08s14.28,6.06,14.28,16.08s-6.06,16.02-14.28,16.02
		S372.77,80.78,372.77,70.76z M397.6,70.76c0-7.62-3.9-12.66-10.5-12.66s-10.56,5.04-10.56,12.66c0,7.2,3.96,12.78,10.56,12.78
		S397.6,77.96,397.6,70.76z"/>
	<path class="st0" d="M406.49,70.88c0-9.96,5.88-16.14,13.68-16.14c5.28,0,8.82,2.64,10.62,6.06V43.22h3.66v43.2h-3.3l-0.24-6.12
		c-2.28,4.2-6.36,6.48-10.98,6.48C412.25,86.78,406.49,81.38,406.49,70.88z M431.02,70.94c0-7.68-3.96-13.08-10.32-13.08
		c-6.3,0-10.26,5.22-10.26,12.96c0,7.56,3.78,12.78,10.26,12.78S431.02,78.2,431.02,70.94z"/>
	<path class="st0" d="M441.4,70.34c0-9.3,6-15.66,13.5-15.66c8.7,0,13.08,6.36,12.78,14.88l-0.06,1.2h-22.5
		c0.24,8.64,5.76,13.02,12.6,13.02c4.02,0,7.26-1.38,9.48-2.76v3c-2.28,1.62-5.58,2.82-10.08,2.82
		C448.48,86.84,441.4,81.26,441.4,70.34z M445.24,68.06h19.08c-0.18-6.24-3.96-9.96-9.42-9.96
		C449.69,58.1,445.97,61.94,445.24,68.06z"/>
	<path class="st0" d="M474.77,55.22h3.3l0.3,6.36c1.68-4.38,5.1-6.84,8.88-6.84c1.8,0,2.82,0.24,3.84,0.78v3.78
		c-1.26-0.6-2.52-0.96-4.32-0.96c-4.56,0-8.34,4.5-8.34,10.56v17.52h-3.66V55.22z"/>
	<path class="st0" d="M493.78,84.8v-3.12c2.88,1.32,5.58,2.16,9.6,2.16c4.2,0,7.5-1.62,7.5-5.1c0-3.6-2.46-4.74-8.82-7.38
		c-6.84-2.82-8.4-4.68-8.4-8.58c0-4.56,4.2-8.04,11.22-8.04c3.96,0,6.72,0.84,8.64,1.68v3.3c-2.46-1.02-4.98-1.92-8.58-1.92
		c-4.68,0-7.62,1.56-7.62,4.8c0,2.64,1.56,4.02,7.98,6.6c6.18,2.52,9.24,4.32,9.24,9.24c0,5.64-5.34,8.4-11.04,8.4
		C499.3,86.84,496,85.94,493.78,84.8z"/>
</g>
<path class="st1" d="M50.02,50.84c-5.5-1.65-10.63-4.68-13.5-10.08c4.24-2.62,8.73-4.7,13.33-6.13c-1.31,2.36-2.07,5.07-2.07,7.96
	C47.78,45.6,48.61,48.41,50.02,50.84 M64.21,52.68c-5.56,0-10.09-4.53-10.09-10.09c0-5.56,4.53-10.09,10.09-10.09
	S74.3,37.03,74.3,42.6C74.3,48.16,69.78,52.68,64.21,52.68 M54.71,80.12c5.5,1.65,10.63,4.68,13.5,10.08
	c-4.24,2.62-8.73,4.7-13.33,6.13c1.31-2.36,2.07-5.07,2.07-7.96C56.95,85.35,56.13,82.54,54.71,80.12 M40.52,78.27
	c5.56,0,10.09,4.53,10.09,10.09c0,5.56-4.53,10.09-10.09,10.09s-10.09-4.53-10.09-10.09S34.96,78.27,40.52,78.27 M73.42,86.61
	c-5.38-9.38-16.79-14.68-32.71-14.68c-0.02,0-0.04,0.01-0.06,0.01c-0.04,0-0.08-0.01-0.13-0.01c-9.06,0-16.43,7.37-16.43,16.43
	c0,9.06,7.37,16.43,16.43,16.43c0.22,0,0.44-0.02,0.66-0.03c0.11,0.01,0.22,0.03,0.33,0.03c9.87,0,19.8-3.14,28.72-8.35
	c0.21,1.31,0.33,2.69,0.33,4.19c0,13.37-11.34,22.35-28.21,22.35c-16.56,0-34.38-11.81-34.38-37.74c0-15.06,9.81-30.62,23.33-40.9
	c5.38,9.38,16.79,14.68,32.71,14.68c0.02,0,0.04-0.01,0.06-0.01c0.04,0,0.08,0.01,0.13,0.01c9.06,0,16.43-7.37,16.43-16.43
	c0-9.06-7.37-16.43-16.43-16.43c-0.22,0-0.44,0.02-0.66,0.03c-0.11-0.01-0.22-0.03-0.33-0.03c-9.87,0-19.8,3.14-28.72,8.35
	c-0.21-1.31-0.33-2.69-0.33-4.19c0-13.37,11.34-22.35,28.21-22.35c16.56,0,34.38,11.81,34.38,37.74
	C96.76,60.77,86.95,76.33,73.42,86.61 M103.1,45.71c0-30.28-21.11-44.08-40.72-44.08c-20.34,0-34.55,11.8-34.55,28.69
	c0,2.82,0.33,5.45,0.98,7.9C13.04,49.61,1.64,67.52,1.64,85.24c0,30.29,21.11,44.08,40.72,44.08c20.34,0,34.55-11.8,34.55-28.69
	c0-2.82-0.33-5.45-0.98-7.9C91.69,81.35,103.1,63.44,103.1,45.71"/>
</svg>
