<?xml version="1.0" encoding="utf-8"?>
<!-- Generator: Adobe Illustrator 24.2.0, SVG Export Plug-In . SVG Version: 6.00 Build 0)  -->
<svg version="1.1" id="Layer_1" xmlns="http://www.w3.org/2000/svg" xmlns:xlink="http://www.w3.org/1999/xlink" x="0px" y="0px"
	 viewBox="0 0 1480 1096" style="enable-background:new 0 0 1480 1096;" xml:space="preserve">
<style type="text/css">
	.st0{fill-rule:evenodd;clip-rule:evenodd;fill:url(#SVGID_1_);}
	.st1{fill:#FFFFFF;}
	.st2{fill:#777A80;}
	.st3{opacity:0.3;}
	.st0{opacity:0.42;}
	.st5{opacity:0.42;}
	.st5{fill:#F4F4F4;}
	.st6{fill-rule:evenodd;clip-rule:evenodd;fill:#27282C;}
	.st7{fill:#27282C;}
	.st8{fill-rule:evenodd;clip-rule:evenodd;fill:url(#SVGID_2_);}
	.st9{fill-rule:evenodd;clip-rule:evenodd;fill:url(#SVGID_3_);}
</style>
<linearGradient id="SVGID_1_" gradientUnits="userSpaceOnUse" x1="309.6642" y1="180.1492" x2="543.6015" y2="476.598" gradientTransform="matrix(1 0 0 -1 0 1095.2756)">
	<stop  offset="0" style="stop-color:#EA4961"/>
	<stop  offset="0.8905" style="stop-color:#7F52FF"/>
</linearGradient>
<path class="st0" d="M27.5,443.7l1009.5,0c10.8,0,20,7.8,21.7,18.5l44.8,278c2.2,13.4-8.2,25.5-21.7,25.5l-1009.2,0
	c-10.8,0-20-7.8-21.7-18.5l-45.1-278C3.6,455.8,13.9,443.7,27.5,443.7z"/>
<path class="st1" d="M51.9,516.8l-5.5-33.8h12c2.4,0,4.4,0.4,6.1,1.2c1.7,0.8,3,1.9,4,3.3c1,1.4,1.6,2.9,1.9,4.5
	c0.2,1.5,0.2,2.7-0.2,3.6c-0.4,0.9-0.9,1.7-1.7,2.2c-0.8,0.6-1.6,1-2.5,1.2l0,0.3c1.1,0.1,2.2,0.4,3.3,1.1c1.2,0.7,2.2,1.6,3.1,2.8
	c0.9,1.2,1.5,2.7,1.8,4.5c0.3,1.7,0.1,3.2-0.4,4.6c-0.6,1.4-1.6,2.4-3.2,3.2c-1.6,0.8-3.7,1.2-6.4,1.2L51.9,516.8L51.9,516.8z
	 M53,497.8h7.7c1.2,0,2.3-0.2,3.3-0.7c0.9-0.5,1.6-1.2,2.1-2c0.5-0.9,0.6-1.9,0.4-3.1c-0.2-1.5-1-2.7-2.2-3.8c-1.2-1-3-1.6-5.2-1.6
	h-7.8L53,497.8z M55.4,513.1h8.2c2.7,0,4.6-0.5,5.5-1.6c1-1,1.4-2.3,1.1-3.8c-0.2-1.1-0.6-2.2-1.4-3.2c-0.8-1-1.7-1.8-2.9-2.3
	c-1.2-0.6-2.5-0.9-4-0.9h-8.4L55.4,513.1z"/>
<path class="st1" d="M95.9,506.4l-2.4-15h3.9l4.1,25.4h-3.9l-0.7-4.3h-0.3c-0.4,1.3-1.2,2.4-2.3,3.3c-1.1,0.9-2.7,1.4-4.6,1.4
	c-1.6,0-3.1-0.3-4.5-1.1c-1.4-0.7-2.5-1.8-3.5-3.2c-0.9-1.4-1.6-3.2-1.9-5.4l-2.6-16.1h3.9l2.6,15.9c0.3,1.9,1.1,3.3,2.3,4.4
	c1.2,1.1,2.7,1.6,4.3,1.6c1,0,2-0.3,2.9-0.7c0.9-0.5,1.7-1.3,2.2-2.3C96,509.3,96.1,508,95.9,506.4z"/>
<path class="st1" d="M123.1,497.1l-3.4,1c-0.3-0.6-0.7-1.1-1.3-1.7c-0.5-0.6-1.2-1-2-1.4c-0.8-0.4-1.8-0.5-2.9-0.5
	c-1.6,0-2.8,0.4-3.8,1.1s-1.3,1.6-1.1,2.7c0.2,1,0.6,1.7,1.4,2.3c0.8,0.6,2,1,3.6,1.4l4,0.9c2.4,0.5,4.2,1.4,5.6,2.5
	c1.3,1.1,2.1,2.6,2.4,4.4c0.2,1.5,0,2.7-0.6,3.9c-0.7,1.1-1.7,2-3.1,2.7c-1.4,0.7-3.1,1-5.1,1c-2.6,0-4.9-0.6-6.8-1.7
	c-1.9-1.1-3.3-2.8-4.1-4.9l3.6-0.9c0.6,1.4,1.4,2.4,2.5,3.1c1.1,0.7,2.5,1,4.1,1c1.8,0,3.2-0.4,4.2-1.2c1-0.8,1.4-1.7,1.2-2.8
	c-0.1-0.9-0.6-1.6-1.3-2.2c-0.7-0.6-1.8-1.1-3.1-1.4l-4.5-1c-2.5-0.5-4.3-1.4-5.6-2.6c-1.3-1.2-2.1-2.6-2.4-4.4
	c-0.2-1.4,0-2.7,0.6-3.8c0.6-1.1,1.6-2,3-2.6c1.3-0.6,2.9-0.9,4.7-0.9c2.5,0,4.6,0.5,6.3,1.6C120.9,493.8,122.2,495.3,123.1,497.1z"
	/>
<path class="st1" d="M129.2,487.2c-0.8,0-1.5-0.3-2.1-0.8c-0.6-0.5-1-1.1-1.1-1.9c-0.1-0.7,0.1-1.4,0.5-1.9c0.5-0.5,1.1-0.8,1.9-0.8
	c0.8,0,1.5,0.3,2.1,0.8c0.6,0.5,1,1.1,1.1,1.9c0.1,0.7-0.1,1.4-0.5,1.9C130.6,486.9,130,487.2,129.2,487.2z M132,516.8l-4.1-25.4
	h3.9l4.1,25.4H132z"/>
<path class="st1" d="M144,501.5l2.5,15.3h-3.9l-4.1-25.4h3.8l0.6,4h0.3c0.4-1.3,1.1-2.3,2.2-3.1c1.1-0.8,2.6-1.2,4.6-1.2
	c1.7,0,3.3,0.3,4.8,1.1c1.4,0.7,2.6,1.8,3.6,3.2c1,1.4,1.6,3.2,2,5.4l2.6,16.1h-3.9l-2.6-15.9c-0.3-2-1.1-3.6-2.3-4.7
	c-1.2-1.1-2.8-1.7-4.6-1.7c-1.3,0-2.3,0.3-3.2,0.8c-0.9,0.5-1.6,1.3-1.9,2.4C143.8,498.8,143.7,500,144,501.5z"/>
<path class="st1" d="M180.3,517.3c-2.5,0-4.7-0.5-6.7-1.6c-2-1.1-3.6-2.6-4.9-4.6c-1.3-1.9-2.1-4.2-2.5-6.8
	c-0.4-2.6-0.3-4.9,0.3-6.9c0.6-2,1.7-3.5,3.3-4.7c1.6-1.1,3.5-1.7,5.8-1.7c1.3,0,2.7,0.2,4.1,0.7c1.4,0.4,2.7,1.1,3.9,2.1
	c1.2,1,2.3,2.3,3.2,3.9c0.9,1.6,1.5,3.6,1.9,6l0.3,1.7h-19.8l-0.6-3.4h15.8c-0.2-1.4-0.7-2.7-1.5-3.8c-0.8-1.1-1.7-2-2.9-2.7
	c-1.2-0.6-2.5-1-3.9-1c-1.6,0-2.9,0.4-3.9,1.1c-1,0.8-1.7,1.8-2.2,3c-0.4,1.2-0.5,2.5-0.3,3.9l0.4,2.2c0.3,1.9,0.9,3.5,1.8,4.9
	c0.9,1.3,2,2.3,3.3,3c1.3,0.7,2.8,1,4.4,1c1,0,1.9-0.1,2.8-0.4c0.8-0.3,1.4-0.7,2-1.3c0.5-0.6,0.9-1.3,1.1-2.2l4,1.1
	c-0.2,1.3-0.7,2.4-1.5,3.4c-0.8,1-1.8,1.7-3.2,2.2C183.5,517,182,517.3,180.3,517.3z"/>
<path class="st1" d="M211.2,497.1l-3.4,1c-0.3-0.6-0.7-1.1-1.3-1.7c-0.5-0.5-1.2-1-2-1.4c-0.8-0.4-1.8-0.5-2.9-0.5
	c-1.6,0-2.8,0.4-3.8,1.1c-0.9,0.7-1.3,1.6-1.1,2.7c0.2,1,0.6,1.7,1.4,2.3c0.8,0.6,2,1,3.6,1.4l4,0.9c2.4,0.5,4.2,1.4,5.6,2.5
	c1.3,1.1,2.1,2.6,2.4,4.4c0.2,1.5,0,2.7-0.6,3.9c-0.7,1.1-1.7,2-3.1,2.7c-1.4,0.7-3.1,1-5.1,1c-2.6,0-4.9-0.6-6.8-1.7
	c-1.9-1.1-3.3-2.8-4.1-4.9l3.6-0.9c0.6,1.4,1.4,2.4,2.5,3.1c1.1,0.7,2.5,1,4.1,1c1.8,0,3.2-0.4,4.2-1.2c1-0.8,1.4-1.7,1.2-2.8
	c-0.1-0.9-0.6-1.6-1.3-2.2c-0.7-0.6-1.8-1.1-3.1-1.4l-4.5-1c-2.4-0.5-4.3-1.4-5.6-2.6c-1.3-1.2-2.1-2.6-2.4-4.4
	c-0.2-1.4,0-2.7,0.6-3.8c0.6-1.1,1.6-2,3-2.6c1.3-0.6,2.9-0.9,4.7-0.9c2.5,0,4.6,0.5,6.3,1.6C209,493.8,210.3,495.3,211.2,497.1z"/>
<path class="st1" d="M235.2,497.1l-3.4,1c-0.3-0.6-0.7-1.1-1.3-1.7c-0.5-0.6-1.2-1-2-1.4c-0.8-0.4-1.8-0.5-2.9-0.5
	c-1.6,0-2.8,0.4-3.8,1.1s-1.3,1.6-1.1,2.7c0.2,1,0.6,1.7,1.4,2.3c0.8,0.6,2,1,3.6,1.4l4,0.9c2.4,0.5,4.2,1.4,5.6,2.5
	c1.3,1.1,2.1,2.6,2.4,4.4c0.2,1.5,0,2.7-0.6,3.9c-0.7,1.1-1.7,2-3.1,2.7c-1.4,0.7-3.1,1-5.1,1c-2.6,0-4.9-0.6-6.8-1.7
	c-1.9-1.1-3.3-2.8-4.1-4.9l3.6-0.9c0.6,1.4,1.4,2.4,2.5,3.1c1.1,0.7,2.5,1,4.1,1c1.8,0,3.2-0.4,4.2-1.2c1-0.8,1.4-1.7,1.2-2.8
	c-0.1-0.9-0.6-1.6-1.3-2.2c-0.7-0.6-1.8-1.1-3.1-1.4l-4.5-1c-2.5-0.5-4.3-1.4-5.6-2.6c-1.3-1.2-2.1-2.6-2.4-4.4
	c-0.2-1.4,0-2.7,0.6-3.8c0.6-1.1,1.6-2,3-2.6c1.3-0.6,2.9-0.9,4.7-0.9c2.5,0,4.6,0.5,6.3,1.6C233,493.8,234.3,495.3,235.2,497.1z"/>
<path class="st1" d="M255.1,482.9l5.5,33.8h-3.9l-5.5-33.8H255.1z"/>
<path class="st1" d="M277.7,517.3c-2.3,0-4.5-0.5-6.4-1.6c-1.9-1.1-3.5-2.6-4.8-4.6c-1.3-2-2.2-4.3-2.6-6.9
	c-0.4-2.6-0.3-4.9,0.3-6.9c0.7-2,1.8-3.5,3.4-4.6c1.6-1.1,3.5-1.6,5.9-1.6s4.5,0.6,6.4,1.6c1.9,1.1,3.5,2.6,4.8,4.6
	c1.3,2,2.2,4.3,2.6,6.9c0.4,2.6,0.3,4.9-0.4,6.9c-0.7,2-1.8,3.5-3.4,4.6C281.9,516.7,280,517.3,277.7,517.3z M277.1,513.8
	c1.8,0,3.1-0.4,4.1-1.3c1-0.9,1.7-2.1,2-3.5c0.3-1.5,0.3-3,0.1-4.7c-0.3-1.7-0.8-3.3-1.6-4.7c-0.8-1.5-1.8-2.7-3.1-3.6
	c-1.3-0.9-2.8-1.4-4.6-1.4c-1.8,0-3.1,0.5-4.1,1.4c-1,0.9-1.7,2.1-2,3.6c-0.3,1.5-0.3,3-0.1,4.7c0.3,1.7,0.8,3.3,1.6,4.7
	c0.8,1.5,1.8,2.6,3.1,3.5C273.8,513.3,275.3,513.8,277.1,513.8z"/>
<path class="st1" d="M306.6,526.8c-1.9,0-3.6-0.2-5-0.7c-1.4-0.5-2.7-1.1-3.7-1.9c-1-0.8-1.9-1.6-2.6-2.5l2.8-2.2
	c0.4,0.5,1,1,1.6,1.6c0.6,0.6,1.5,1.1,2.5,1.6c1,0.4,2.3,0.7,3.9,0.7c2.1,0,3.7-0.5,4.9-1.5c1.2-1,1.6-2.5,1.3-4.7l-0.8-5.2H311
	c-0.2,0.5-0.5,1-1,1.7c-0.4,0.7-1.1,1.3-2,1.8c-0.9,0.5-2.2,0.8-3.9,0.8c-2.1,0-4-0.5-5.8-1.5c-1.8-1-3.3-2.4-4.6-4.2
	c-1.3-1.9-2.1-4.1-2.5-6.7c-0.4-2.6-0.3-4.9,0.3-6.8c0.6-1.9,1.7-3.4,3.1-4.5c1.5-1.1,3.3-1.6,5.5-1.6c1.7,0,3.1,0.3,4.1,0.8
	c1.1,0.5,1.9,1.2,2.6,1.9c0.6,0.7,1.1,1.3,1.5,1.7h0.4l-0.6-4h3.8l4.2,26.1c0.3,2.2,0.1,4-0.6,5.3c-0.8,1.4-1.9,2.4-3.5,3
	C310.5,526.5,308.6,526.8,306.6,526.8z M304.2,512.9c1.6,0,2.9-0.4,3.9-1.1c1-0.7,1.7-1.7,2-3.1c0.3-1.4,0.4-3,0.1-4.8
	c-0.3-1.8-0.8-3.4-1.6-4.8c-0.8-1.4-1.8-2.5-3-3.3c-1.2-0.8-2.6-1.2-4.2-1.2c-1.7,0-3,0.4-4,1.3c-1,0.8-1.6,2-1.9,3.4
	c-0.3,1.4-0.3,3-0.1,4.7c0.3,1.8,0.8,3.3,1.6,4.7c0.8,1.4,1.8,2.4,3,3.2C301.1,512.5,302.5,512.9,304.2,512.9z"/>
<path class="st1" d="M319.9,487.2c-0.8,0-1.5-0.3-2.1-0.8c-0.6-0.5-1-1.1-1.1-1.9c-0.1-0.7,0.1-1.4,0.5-1.9c0.5-0.5,1.1-0.8,1.9-0.8
	c0.8,0,1.5,0.3,2.1,0.8c0.6,0.5,1,1.1,1.1,1.9c0.1,0.7-0.1,1.4-0.5,1.9C321.2,486.9,320.6,487.2,319.9,487.2z M322.6,516.8
	l-4.1-25.4h3.9l4.1,25.4H322.6z"/>
<path class="st1" d="M343.6,517.3c-2.4,0-4.6-0.6-6.5-1.7c-1.9-1.1-3.5-2.7-4.8-4.6c-1.3-2-2.1-4.2-2.5-6.8
	c-0.4-2.6-0.3-4.9,0.3-6.8c0.6-2,1.7-3.5,3.3-4.6c1.6-1.1,3.5-1.7,5.8-1.7c1.8,0,3.5,0.3,5,1c1.6,0.7,2.9,1.6,4,2.8
	c1.1,1.2,1.9,2.6,2.4,4.2h-3.9c-0.5-1.2-1.3-2.2-2.5-3.1c-1.2-0.9-2.6-1.4-4.4-1.4c-1.5,0-2.8,0.4-3.9,1.2c-1,0.8-1.7,1.9-2.2,3.3
	c-0.4,1.4-0.5,3.1-0.2,5c0.3,2,0.9,3.7,1.8,5.1c0.9,1.5,1.9,2.6,3.2,3.4c1.3,0.8,2.7,1.2,4.3,1.2c1,0,1.9-0.2,2.7-0.5
	c0.8-0.3,1.4-0.9,1.9-1.5c0.5-0.7,0.8-1.5,0.8-2.4h3.9c0,1.5-0.3,2.8-1,4c-0.7,1.2-1.7,2.1-3,2.8
	C347.1,516.9,345.5,517.3,343.6,517.3z"/>
<path class="st1" d="M65.8,559.5c-1.6,0-3.2-0.3-4.6-0.9c-1.4-0.6-2.6-1.5-3.6-2.7c-1-1.2-1.6-2.6-1.9-4.2c-0.2-1.5-0.1-2.6,0.3-3.5
	c0.4-0.9,1.1-1.6,2-2.1c0.9-0.5,1.9-0.9,3-1.2c1.1-0.3,2.3-0.5,3.5-0.6c1.5-0.2,2.8-0.3,3.7-0.5c1-0.1,1.7-0.3,2.1-0.5
	c0.4-0.3,0.6-0.7,0.5-1.3l0-0.1c-0.3-1.6-0.9-2.9-2-3.8c-1-0.9-2.5-1.4-4.3-1.4c-1.9,0-3.3,0.4-4.2,1.2c-0.9,0.8-1.6,1.7-1.8,2.6
	l-4-1.3c0.4-1.5,1.1-2.7,2.1-3.6c1-0.9,2.1-1.5,3.4-1.8c1.3-0.3,2.6-0.5,3.9-0.5c0.8,0,1.8,0.1,2.9,0.3c1.1,0.2,2.2,0.6,3.3,1.2
	c1.1,0.6,2.1,1.5,3,2.7c0.9,1.2,1.5,2.8,1.8,4.8l2.7,16.7h-3.9l-0.6-3.4h-0.2c-0.2,0.5-0.5,1.1-1.1,1.8c-0.5,0.6-1.3,1.2-2.2,1.6
	C68.5,559.3,67.3,559.5,65.8,559.5z M65.8,556c1.6,0,2.8-0.3,3.8-0.9c1-0.6,1.7-1.4,2.1-2.3c0.4-1,0.5-2,0.3-3l-0.6-3.6
	c-0.1,0.2-0.5,0.4-1,0.5c-0.5,0.2-1.2,0.3-1.9,0.4c-0.7,0.1-1.4,0.2-2.1,0.3c-0.7,0.1-1.2,0.2-1.6,0.2c-1,0.1-1.9,0.3-2.8,0.6
	c-0.8,0.3-1.5,0.7-1.9,1.3c-0.5,0.6-0.6,1.4-0.4,2.4c0.2,1.4,0.9,2.4,2,3.1C62.9,555.7,64.3,556,65.8,556z"/>
<path class="st1" d="M85.5,543.7l2.5,15.3h-3.9L80,533.5h3.8l0.6,4h0.3c0.4-1.3,1.1-2.3,2.2-3.1c1.1-0.8,2.6-1.2,4.6-1.2
	c1.7,0,3.3,0.3,4.8,1.1c1.4,0.7,2.6,1.8,3.6,3.2c1,1.4,1.6,3.2,2,5.4l2.6,16.1h-3.9l-2.6-15.9c-0.3-2-1.1-3.5-2.3-4.7
	c-1.2-1.1-2.8-1.7-4.6-1.7c-1.3,0-2.3,0.3-3.2,0.8s-1.6,1.3-2,2.4C85.4,540.9,85.3,542.2,85.5,543.7z"/>
<path class="st1" d="M120.8,559.5c-2.1,0-4.1-0.5-5.9-1.6c-1.8-1.1-3.3-2.6-4.6-4.6c-1.2-2-2.1-4.3-2.5-7c-0.4-2.7-0.3-5,0.3-6.9
	c0.6-2,1.7-3.5,3.1-4.5c1.5-1.1,3.3-1.6,5.5-1.6c1.7,0,3.1,0.3,4.1,0.8c1.1,0.5,1.9,1.2,2.5,1.9c0.6,0.7,1.1,1.3,1.5,1.7h0.3
	l-2-12.5h3.9l5.5,33.8h-3.8L128,555h-0.5c-0.2,0.5-0.5,1-1,1.7c-0.4,0.7-1.1,1.3-2,1.9C123.7,559.2,122.4,559.5,120.8,559.5z
	 M120.7,556c1.6,0,2.9-0.4,3.8-1.2c1-0.8,1.6-2,2-3.4c0.3-1.5,0.3-3.1,0-5.1c-0.3-1.9-0.8-3.6-1.6-5c-0.8-1.4-1.8-2.5-3-3.3
	c-1.2-0.8-2.6-1.2-4.2-1.2c-1.7,0-3,0.4-4,1.3c-1,0.8-1.6,2-1.9,3.4c-0.3,1.4-0.3,3,0,4.8c0.3,1.8,0.8,3.4,1.6,4.9
	c0.8,1.5,1.8,2.6,3.1,3.5C117.6,555.5,119.1,556,120.7,556z"/>
<path class="st1" d="M162.6,559.5c-2.4,0-4.6-0.6-6.5-1.7c-1.9-1.1-3.5-2.7-4.8-4.6c-1.3-2-2.1-4.2-2.5-6.8
	c-0.4-2.6-0.3-4.9,0.3-6.8c0.6-2,1.7-3.5,3.3-4.6c1.6-1.1,3.5-1.7,5.8-1.7c1.8,0,3.5,0.3,5,1c1.6,0.7,2.9,1.6,4,2.8
	c1.1,1.2,1.9,2.6,2.4,4.2h-3.9c-0.5-1.2-1.3-2.2-2.5-3.1c-1.2-0.9-2.6-1.4-4.4-1.4c-1.5,0-2.8,0.4-3.9,1.2c-1,0.8-1.7,1.9-2.2,3.3
	c-0.4,1.4-0.5,3.1-0.2,5c0.3,2,0.9,3.7,1.8,5.1c0.9,1.5,1.9,2.6,3.2,3.4c1.3,0.8,2.7,1.2,4.3,1.2c1,0,1.9-0.2,2.7-0.5
	c0.8-0.3,1.4-0.9,1.9-1.5c0.5-0.7,0.8-1.5,0.8-2.4h3.9c0,1.5-0.3,2.8-1,4c-0.7,1.2-1.7,2.1-3,2.8
	C166.1,559.1,164.5,559.5,162.6,559.5z"/>
<path class="st1" d="M188.3,559.5c-2.3,0-4.5-0.5-6.4-1.6c-1.9-1.1-3.5-2.6-4.8-4.6c-1.3-2-2.2-4.3-2.6-6.9
	c-0.4-2.6-0.3-4.9,0.3-6.9c0.7-2,1.8-3.5,3.4-4.6c1.6-1.1,3.5-1.6,5.8-1.6c2.3,0,4.5,0.5,6.4,1.6c1.9,1.1,3.5,2.6,4.8,4.6
	c1.3,2,2.2,4.3,2.6,6.9c0.4,2.6,0.3,4.9-0.4,6.9c-0.7,2-1.8,3.5-3.4,4.6C192.5,558.9,190.6,559.5,188.3,559.5z M187.7,556
	c1.8,0,3.1-0.4,4.1-1.3c1-0.9,1.7-2.1,2-3.5s0.3-3,0.1-4.7c-0.3-1.7-0.8-3.3-1.6-4.7c-0.8-1.5-1.8-2.7-3.1-3.5
	c-1.3-0.9-2.8-1.4-4.6-1.4c-1.8,0-3.1,0.5-4.1,1.4c-1,0.9-1.7,2.1-2,3.5c-0.3,1.5-0.3,3-0.1,4.7c0.3,1.7,0.8,3.3,1.6,4.7
	c0.8,1.5,1.8,2.6,3.1,3.5C184.4,555.5,185.9,556,187.7,556z"/>
<path class="st1" d="M205.2,558.9l-4.1-25.4h3.8l0.6,3.8h0.3c0.3-1.3,0.9-2.3,2.1-3.1c1.1-0.8,2.4-1.2,4-1.2c0.3,0,0.7,0,1.1,0
	c0.4,0,0.8,0,1,0l0.6,4c-0.1,0-0.5-0.1-0.9-0.2c-0.5-0.1-1-0.1-1.5-0.1c-1.3,0-2.3,0.3-3.2,0.8c-0.9,0.5-1.6,1.2-2,2.1
	c-0.4,0.9-0.5,1.9-0.3,3.1l2.6,16.1L205.2,558.9L205.2,558.9z"/>
<path class="st1" d="M232.9,559.5c-2.5,0-4.7-0.5-6.7-1.6c-2-1.1-3.6-2.6-4.9-4.6c-1.3-1.9-2.1-4.2-2.5-6.8
	c-0.4-2.6-0.3-4.9,0.3-6.9c0.6-2,1.7-3.5,3.3-4.7c1.6-1.1,3.5-1.7,5.8-1.7c1.3,0,2.7,0.2,4.1,0.7c1.4,0.4,2.7,1.1,3.9,2.1
	c1.2,1,2.3,2.3,3.2,3.9c0.9,1.6,1.5,3.6,1.9,6l0.3,1.6h-19.8l-0.6-3.4h15.8c-0.2-1.4-0.7-2.7-1.5-3.8c-0.8-1.1-1.7-2-2.9-2.7
	c-1.2-0.6-2.5-1-3.9-1c-1.6,0-2.9,0.4-3.9,1.1c-1,0.8-1.7,1.8-2.2,3c-0.4,1.2-0.5,2.5-0.3,3.9l0.4,2.2c0.3,1.9,0.9,3.5,1.8,4.9
	c0.9,1.3,2,2.3,3.3,3c1.3,0.7,2.8,1,4.4,1c1,0,1.9-0.1,2.8-0.4c0.8-0.3,1.4-0.7,2-1.3s0.9-1.3,1.1-2.2l4,1.1
	c-0.2,1.3-0.7,2.4-1.5,3.4c-0.8,1-1.8,1.7-3.2,2.2C236.2,559.2,234.6,559.5,232.9,559.5z"/>
<g>
	<path class="st2" d="M20.2,378.7c-0.2-1.7-1-3-2.5-3.9c-1.4-0.9-3.2-1.4-5.3-1.4c-1.5,0-2.8,0.3-4,0.7s-2,1.2-2.6,2
		C5.3,377,5,377.9,5,379c0,0.9,0.2,1.7,0.7,2.4c0.4,0.7,1,1.2,1.7,1.6c0.7,0.4,1.4,0.8,2.2,1.1c0.8,0.3,1.5,0.5,2.1,0.7l3.5,0.9
		c0.9,0.2,1.9,0.6,3,1c1.1,0.4,2.2,1,3.2,1.7c1,0.7,1.8,1.6,2.5,2.7c0.7,1.1,1,2.5,1,4.1c0,1.9-0.5,3.5-1.4,5
		c-1,1.5-2.4,2.7-4.2,3.6c-1.9,0.9-4.1,1.3-6.7,1.3c-2.5,0-4.6-0.4-6.4-1.2c-1.8-0.8-3.2-1.9-4.2-3.3c-1-1.4-1.6-3.1-1.7-4.9h4.3
		c0.1,1.3,0.6,2.4,1.3,3.2c0.8,0.8,1.7,1.5,2.9,1.9c1.2,0.4,2.5,0.6,3.8,0.6c1.6,0,3-0.3,4.3-0.8c1.3-0.5,2.3-1.2,3-2.2
		c0.7-0.9,1.1-2,1.1-3.3c0-1.1-0.3-2.1-1-2.8c-0.6-0.7-1.5-1.3-2.5-1.7c-1-0.4-2.2-0.8-3.4-1.2l-4.2-1.2c-2.7-0.8-4.8-1.9-6.4-3.3
		c-1.6-1.4-2.3-3.3-2.3-5.6c0-1.9,0.5-3.6,1.6-5c1-1.4,2.5-2.5,4.2-3.3c1.8-0.8,3.7-1.2,5.9-1.2c2.2,0,4.2,0.4,5.9,1.2
		c1.7,0.8,3.1,1.9,4.1,3.2c1,1.4,1.5,2.9,1.6,4.6H20.2z"/>
	<path class="st2" d="M34.3,388.9v15.5h-3.9v-34.3h3.9v12.6h0.3c0.6-1.3,1.5-2.4,2.7-3.2c1.2-0.8,2.8-1.2,4.8-1.2
		c1.8,0,3.3,0.3,4.6,1.1c1.3,0.7,2.3,1.8,3.1,3.2c0.7,1.4,1.1,3.3,1.1,5.5v16.3H47v-16.1c0-2-0.5-3.6-1.6-4.7
		c-1.1-1.1-2.5-1.7-4.4-1.7c-1.3,0-2.5,0.3-3.5,0.8s-1.8,1.4-2.4,2.4C34.6,386.2,34.3,387.4,34.3,388.9z"/>
	<path class="st2" d="M65.1,405c-1.6,0-3.1-0.3-4.4-0.9c-1.3-0.6-2.4-1.5-3.2-2.7c-0.8-1.2-1.2-2.6-1.2-4.3c0-1.5,0.3-2.7,0.9-3.6
		c0.6-0.9,1.4-1.7,2.3-2.2c1-0.5,2-0.9,3.2-1.2s2.4-0.5,3.6-0.6c1.6-0.2,2.8-0.4,3.8-0.5c1-0.1,1.7-0.3,2.1-0.5
		c0.5-0.3,0.7-0.7,0.7-1.3v-0.1c0-1.6-0.5-2.9-1.4-3.8c-0.9-0.9-2.3-1.4-4.1-1.4c-1.9,0-3.4,0.4-4.4,1.2c-1.1,0.8-1.8,1.7-2.3,2.6
		l-3.8-1.3c0.7-1.6,1.6-2.8,2.7-3.7c1.1-0.9,2.4-1.5,3.7-1.8c1.3-0.3,2.6-0.5,3.9-0.5c0.8,0,1.8,0.1,2.9,0.3
		c1.1,0.2,2.1,0.6,3.1,1.2c1,0.6,1.9,1.5,2.5,2.7c0.7,1.2,1,2.8,1,4.9v16.9h-3.9v-3.5h-0.2c-0.3,0.6-0.7,1.2-1.3,1.8
		c-0.6,0.6-1.5,1.2-2.5,1.6C67.8,404.8,66.6,405,65.1,405z M65.7,401.4c1.6,0,2.9-0.3,4-0.9c1.1-0.6,1.9-1.4,2.5-2.4
		c0.6-1,0.8-2,0.8-3.1v-3.6c-0.2,0.2-0.5,0.4-1.1,0.5c-0.6,0.2-1.2,0.3-2,0.4c-0.7,0.1-1.4,0.2-2.1,0.3c-0.7,0.1-1.2,0.2-1.7,0.2
		c-1,0.1-2,0.3-2.9,0.6c-0.9,0.3-1.6,0.7-2.1,1.3c-0.5,0.6-0.8,1.4-0.8,2.4c0,1.4,0.5,2.4,1.5,3.1C62.8,401.1,64.1,401.4,65.7,401.4
		z"/>
	<path class="st2" d="M83.4,404.4v-25.7h3.8v3.9h0.3c0.5-1.3,1.3-2.3,2.5-3.1c1.2-0.8,2.6-1.2,4.2-1.2c0.3,0,0.7,0,1.1,0
		c0.4,0,0.8,0,1,0v4c-0.1,0-0.4-0.1-0.9-0.2c-0.5-0.1-1-0.1-1.5-0.1c-1.3,0-2.4,0.3-3.4,0.8c-1,0.5-1.7,1.2-2.3,2.1
		c-0.6,0.9-0.8,1.9-0.8,3.1v16.3H83.4z"/>
	<path class="st2" d="M111,404.9c-2.5,0-4.6-0.5-6.4-1.6c-1.8-1.1-3.2-2.6-4.1-4.6c-1-2-1.4-4.3-1.4-6.9c0-2.6,0.5-5,1.4-7
		c1-2,2.3-3.6,4.1-4.7c1.7-1.1,3.8-1.7,6.1-1.7c1.3,0,2.7,0.2,4,0.7c1.3,0.4,2.5,1.2,3.6,2.2c1.1,1,1.9,2.3,2.6,4
		c0.6,1.6,1,3.7,1,6.1v1.7h-19.8v-3.4h15.8c0-1.4-0.3-2.7-0.9-3.9c-0.6-1.1-1.4-2-2.5-2.7c-1.1-0.7-2.3-1-3.7-1
		c-1.6,0-2.9,0.4-4.1,1.2c-1.1,0.8-2,1.8-2.6,3c-0.6,1.2-0.9,2.6-0.9,4v2.3c0,1.9,0.3,3.6,1,4.9c0.7,1.4,1.6,2.4,2.8,3.1
		c1.2,0.7,2.6,1.1,4.2,1.1c1,0,2-0.1,2.8-0.4c0.8-0.3,1.6-0.7,2.2-1.3c0.6-0.6,1.1-1.3,1.4-2.2l3.8,1.1c-0.4,1.3-1.1,2.4-2,3.4
		c-0.9,1-2.1,1.7-3.5,2.3C114.4,404.7,112.8,404.9,111,404.9z"/>
	<path class="st2" d="M136.8,404.9c-2.1,0-4-0.5-5.7-1.6c-1.6-1.1-2.9-2.6-3.9-4.6c-0.9-2-1.4-4.4-1.4-7.1c0-2.7,0.5-5,1.4-7
		c0.9-2,2.2-3.5,3.9-4.6c1.7-1.1,3.6-1.6,5.7-1.6c1.7,0,3,0.3,4,0.8c1,0.6,1.7,1.2,2.2,1.9c0.5,0.7,0.9,1.3,1.2,1.7h0.3v-12.6h3.9
		v34.3h-3.8v-3.9h-0.5c-0.3,0.5-0.7,1.1-1.2,1.8c-0.5,0.7-1.3,1.3-2.3,1.9C139.7,404.7,138.4,404.9,136.8,404.9z M137.3,401.4
		c1.6,0,2.9-0.4,4-1.2c1.1-0.8,1.9-2,2.5-3.5c0.6-1.5,0.8-3.2,0.8-5.1c0-1.9-0.3-3.6-0.8-5c-0.6-1.4-1.4-2.6-2.5-3.4
		c-1.1-0.8-2.5-1.2-4.1-1.2c-1.7,0-3.1,0.4-4.2,1.3c-1.1,0.8-1.9,2-2.5,3.5c-0.6,1.5-0.8,3.1-0.8,4.9c0,1.8,0.3,3.5,0.8,5
		c0.6,1.5,1.4,2.7,2.5,3.5C134.2,400.9,135.6,401.4,137.3,401.4z"/>
	<path class="st2" d="M196.3,380.8h-4.2c-0.3-1.2-0.7-2.2-1.3-3.1c-0.6-0.9-1.4-1.7-2.2-2.3c-0.9-0.6-1.8-1.1-2.9-1.4
		c-1.1-0.3-2.1-0.5-3.3-0.5c-2.1,0-4,0.5-5.6,1.6c-1.7,1.1-3,2.6-4,4.6s-1.5,4.5-1.5,7.5s0.5,5.5,1.5,7.5s2.3,3.6,4,4.6
		c1.7,1.1,3.6,1.6,5.6,1.6c1.1,0,2.2-0.2,3.3-0.5c1.1-0.3,2-0.8,2.9-1.4c0.9-0.6,1.6-1.4,2.2-2.3c0.6-0.9,1-2,1.3-3.1h4.2
		c-0.3,1.8-0.9,3.3-1.7,4.7c-0.8,1.4-1.9,2.6-3.1,3.5c-1.2,1-2.6,1.7-4.1,2.2c-1.5,0.5-3.1,0.8-4.9,0.8c-2.9,0-5.5-0.7-7.8-2.1
		c-2.3-1.4-4.1-3.5-5.4-6.1c-1.3-2.6-2-5.8-2-9.4c0-3.6,0.7-6.7,2-9.4c1.3-2.6,3.1-4.7,5.4-6.1c2.3-1.4,4.9-2.1,7.8-2.1
		c1.7,0,3.4,0.3,4.9,0.8c1.5,0.5,2.9,1.2,4.1,2.2c1.2,1,2.2,2.1,3.1,3.5C195.5,377.5,196,379.1,196.3,380.8z"/>
	<path class="st2" d="M212.3,404.9c-2.3,0-4.4-0.5-6.1-1.6c-1.7-1.1-3.1-2.7-4.1-4.6c-1-2-1.5-4.3-1.5-7c0-2.7,0.5-5,1.5-7
		c1-2,2.3-3.6,4.1-4.7c1.7-1.1,3.8-1.6,6.1-1.6c2.3,0,4.4,0.5,6.1,1.6c1.7,1.1,3.1,2.7,4.1,4.7c1,2,1.5,4.3,1.5,7c0,2.7-0.5,5-1.5,7
		s-2.3,3.5-4.1,4.6C216.6,404.4,214.6,404.9,212.3,404.9z M212.3,401.4c1.8,0,3.2-0.5,4.4-1.4c1.1-0.9,2-2.1,2.5-3.6
		c0.5-1.5,0.8-3.1,0.8-4.8s-0.3-3.3-0.8-4.8c-0.6-1.5-1.4-2.7-2.5-3.6c-1.1-0.9-2.6-1.4-4.4-1.4c-1.8,0-3.2,0.5-4.4,1.4
		c-1.1,0.9-2,2.1-2.5,3.6c-0.6,1.5-0.8,3.1-0.8,4.8s0.3,3.3,0.8,4.8c0.6,1.5,1.4,2.7,2.5,3.6C209,400.9,210.5,401.4,212.3,401.4z"/>
	<path class="st2" d="M239,404.9c-2.1,0-4-0.5-5.7-1.6c-1.6-1.1-2.9-2.6-3.9-4.6c-0.9-2-1.4-4.4-1.4-7.1c0-2.7,0.5-5,1.4-7
		c0.9-2,2.2-3.5,3.9-4.6c1.7-1.1,3.6-1.6,5.7-1.6c1.7,0,3,0.3,4,0.8c1,0.6,1.7,1.2,2.2,1.9c0.5,0.7,0.9,1.3,1.2,1.7h0.3v-12.6h3.9
		v34.3h-3.8v-3.9h-0.5c-0.3,0.5-0.7,1.1-1.2,1.8c-0.5,0.7-1.3,1.3-2.3,1.9C241.9,404.7,240.6,404.9,239,404.9z M239.5,401.4
		c1.6,0,2.9-0.4,4-1.2c1.1-0.8,1.9-2,2.5-3.5c0.6-1.5,0.8-3.2,0.8-5.1c0-1.9-0.3-3.6-0.8-5c-0.6-1.4-1.4-2.6-2.5-3.4
		c-1.1-0.8-2.5-1.2-4.1-1.2c-1.7,0-3.1,0.4-4.2,1.3c-1.1,0.8-2,2-2.5,3.5c-0.6,1.5-0.8,3.1-0.8,4.9c0,1.8,0.3,3.5,0.8,5
		c0.6,1.5,1.4,2.7,2.5,3.5C236.5,400.9,237.8,401.4,239.5,401.4z"/>
	<path class="st2" d="M268.6,404.9c-2.5,0-4.6-0.5-6.4-1.6s-3.2-2.6-4.1-4.6c-1-2-1.4-4.3-1.4-6.9c0-2.6,0.5-5,1.4-7
		c1-2,2.3-3.6,4.1-4.7c1.7-1.1,3.8-1.7,6.1-1.7c1.3,0,2.7,0.2,4,0.7c1.3,0.4,2.5,1.2,3.6,2.2c1.1,1,1.9,2.3,2.6,4
		c0.6,1.6,1,3.7,1,6.1v1.7h-19.8v-3.4h15.8c0-1.4-0.3-2.7-0.9-3.9c-0.6-1.1-1.4-2-2.5-2.7c-1.1-0.7-2.3-1-3.7-1
		c-1.6,0-2.9,0.4-4.1,1.2c-1.1,0.8-2,1.8-2.6,3c-0.6,1.2-0.9,2.6-0.9,4v2.3c0,1.9,0.3,3.6,1,4.9c0.7,1.4,1.6,2.4,2.8,3.1
		s2.6,1.1,4.2,1.1c1,0,2-0.1,2.8-0.4c0.9-0.3,1.6-0.7,2.2-1.3c0.6-0.6,1.1-1.3,1.4-2.2l3.8,1.1c-0.4,1.3-1.1,2.4-2,3.4
		c-0.9,1-2.1,1.7-3.5,2.3C271.9,404.7,270.4,404.9,268.6,404.9z"/>
</g>
<g class="st3">
	<path class="st2" d="M348.7,1.1v34.3h-4L326,8.4h-0.3v26.9h-4.2V1.1h4l18.8,27h0.3v-27H348.7z"/>
	<path class="st2" d="M363.3,35.9c-1.6,0-3.1-0.3-4.4-0.9c-1.3-0.6-2.4-1.5-3.2-2.7c-0.8-1.2-1.2-2.6-1.2-4.3c0-1.5,0.3-2.7,0.9-3.6
		c0.6-0.9,1.4-1.6,2.3-2.2c1-0.5,2-0.9,3.2-1.2c1.2-0.3,2.4-0.5,3.6-0.6c1.6-0.2,2.8-0.4,3.8-0.5c1-0.1,1.7-0.3,2.1-0.5
		c0.5-0.3,0.7-0.7,0.7-1.3V18c0-1.6-0.5-2.9-1.4-3.8c-0.9-0.9-2.3-1.4-4.1-1.4c-1.9,0-3.4,0.4-4.4,1.2c-1.1,0.8-1.8,1.7-2.3,2.6
		l-3.8-1.3c0.7-1.6,1.6-2.8,2.7-3.7c1.1-0.9,2.4-1.5,3.7-1.8c1.3-0.3,2.6-0.5,3.9-0.5c0.8,0,1.8,0.1,2.9,0.3
		c1.1,0.2,2.1,0.6,3.1,1.2c1,0.6,1.9,1.5,2.5,2.7c0.7,1.2,1,2.8,1,4.9v16.9h-3.9v-3.5H371c-0.3,0.6-0.7,1.1-1.3,1.8
		c-0.6,0.6-1.5,1.2-2.5,1.6C366.1,35.7,364.8,35.9,363.3,35.9z M363.9,32.4c1.6,0,2.9-0.3,4-0.9c1.1-0.6,1.9-1.4,2.5-2.4
		c0.5-1,0.8-2,0.8-3.1v-3.6c-0.2,0.2-0.5,0.4-1.1,0.5c-0.6,0.2-1.2,0.3-2,0.4c-0.7,0.1-1.4,0.2-2.1,0.3c-0.7,0.1-1.2,0.2-1.7,0.2
		c-1,0.1-2,0.3-2.9,0.6c-0.9,0.3-1.6,0.7-2.1,1.3c-0.5,0.6-0.8,1.4-0.8,2.4c0,1.4,0.5,2.4,1.5,3.1C361.1,32,362.4,32.4,363.9,32.4z"
		/>
	<path class="st2" d="M392.9,9.6V13h-13.3V9.6H392.9z M383.4,3.5h3.9V28c0,1.1,0.2,1.9,0.5,2.5c0.3,0.5,0.8,0.9,1.3,1.1
		c0.5,0.2,1.1,0.3,1.7,0.3c0.4,0,0.8,0,1.1-0.1c0.3,0,0.5-0.1,0.7-0.1l0.8,3.5c-0.3,0.1-0.6,0.2-1.1,0.3c-0.5,0.1-1.1,0.2-1.8,0.2
		c-1.1,0-2.2-0.2-3.3-0.7c-1.1-0.5-2-1.2-2.6-2.2c-0.7-1-1.1-2.2-1.1-3.7V3.5z"/>
	<path class="st2" d="M400.1,5.3c-0.8,0-1.4-0.3-2-0.8c-0.6-0.5-0.8-1.1-0.8-1.9s0.3-1.4,0.8-1.9c0.6-0.5,1.2-0.8,2-0.8
		c0.8,0,1.4,0.3,2,0.8c0.5,0.5,0.8,1.1,0.8,1.9s-0.3,1.4-0.8,1.9C401.6,5.1,400.9,5.3,400.1,5.3z M398.1,35.3V9.6h3.9v25.7
		L398.1,35.3L398.1,35.3z"/>
	<path class="st2" d="M429.7,9.6l-9.5,25.7h-4l-9.5-25.7h4.3l7.1,20.5h0.3l7.1-20.5H429.7z"/>
	<path class="st2" d="M445,35.9c-2.5,0-4.6-0.5-6.4-1.6c-1.8-1.1-3.2-2.6-4.1-4.6c-1-2-1.4-4.3-1.4-6.9c0-2.6,0.5-5,1.4-7
		c1-2,2.3-3.6,4.1-4.7c1.7-1.1,3.8-1.7,6.1-1.7c1.3,0,2.7,0.2,4,0.7c1.3,0.5,2.5,1.2,3.6,2.2c1.1,1,1.9,2.3,2.6,4
		c0.6,1.6,1,3.7,1,6.1v1.7h-19.8v-3.4h15.8c0-1.4-0.3-2.7-0.9-3.9c-0.6-1.1-1.4-2-2.5-2.7c-1.1-0.7-2.3-1-3.7-1
		c-1.6,0-2.9,0.4-4.1,1.2c-1.1,0.8-2,1.8-2.6,3c-0.6,1.2-0.9,2.6-0.9,4v2.3c0,1.9,0.3,3.6,1,4.9c0.7,1.4,1.6,2.4,2.8,3.1
		c1.2,0.7,2.6,1,4.2,1c1,0,2-0.1,2.8-0.4c0.8-0.3,1.6-0.7,2.2-1.3c0.6-0.6,1.1-1.4,1.4-2.2l3.8,1.1c-0.4,1.3-1.1,2.4-2,3.4
		c-0.9,1-2.1,1.7-3.5,2.3C448.3,35.6,446.7,35.9,445,35.9z"/>
	<path class="st2" d="M501.7,11.8h-4.2c-0.3-1.2-0.7-2.2-1.3-3.1c-0.6-0.9-1.4-1.7-2.2-2.3c-0.9-0.6-1.8-1.1-2.9-1.4
		c-1.1-0.3-2.1-0.5-3.3-0.5c-2.1,0-4,0.5-5.6,1.6c-1.7,1.1-3,2.6-4,4.6c-1,2-1.5,4.5-1.5,7.5s0.5,5.5,1.5,7.5s2.3,3.6,4,4.6
		c1.7,1.1,3.6,1.6,5.6,1.6c1.1,0,2.2-0.2,3.3-0.5c1.1-0.3,2-0.8,2.9-1.4c0.9-0.6,1.6-1.4,2.2-2.3c0.6-0.9,1-1.9,1.3-3.1h4.2
		c-0.3,1.8-0.9,3.3-1.7,4.7c-0.8,1.4-1.9,2.6-3.1,3.5c-1.2,1-2.6,1.7-4.1,2.2c-1.5,0.5-3.1,0.8-4.9,0.8c-2.9,0-5.5-0.7-7.8-2.1
		c-2.3-1.4-4.1-3.5-5.4-6.1c-1.3-2.6-2-5.7-2-9.4s0.7-6.7,2-9.4c1.3-2.6,3.1-4.7,5.4-6.1c2.3-1.4,4.9-2.1,7.8-2.1
		c1.7,0,3.4,0.3,4.9,0.8c1.5,0.5,2.9,1.2,4.1,2.2c1.2,1,2.2,2.1,3.1,3.5C500.8,8.4,501.4,10,501.7,11.8z"/>
	<path class="st2" d="M517.6,35.9c-2.3,0-4.4-0.5-6.1-1.6c-1.7-1.1-3.1-2.7-4.1-4.6c-1-2-1.5-4.3-1.5-7c0-2.7,0.5-5,1.5-7
		c1-2,2.3-3.6,4.1-4.6c1.7-1.1,3.8-1.6,6.1-1.6c2.3,0,4.4,0.5,6.1,1.6c1.7,1.1,3.1,2.7,4.1,4.6c1,2,1.5,4.3,1.5,7c0,2.7-0.5,5-1.5,7
		c-1,2-2.3,3.5-4.1,4.6C521.9,35.3,519.9,35.9,517.6,35.9z M517.6,32.3c1.8,0,3.2-0.5,4.4-1.4c1.1-0.9,2-2.1,2.5-3.6
		c0.6-1.5,0.8-3.1,0.8-4.8c0-1.7-0.3-3.3-0.8-4.8c-0.5-1.5-1.4-2.7-2.5-3.6c-1.1-0.9-2.6-1.4-4.4-1.4c-1.8,0-3.2,0.5-4.4,1.4
		c-1.1,0.9-2,2.1-2.5,3.6c-0.6,1.5-0.8,3.1-0.8,4.8c0,1.7,0.3,3.3,0.8,4.8c0.6,1.5,1.4,2.7,2.5,3.6
		C514.4,31.9,515.8,32.3,517.6,32.3z"/>
	<path class="st2" d="M544.3,35.9c-2.1,0-4-0.5-5.7-1.6c-1.6-1.1-2.9-2.6-3.9-4.6c-0.9-2-1.4-4.4-1.4-7.1c0-2.7,0.5-5,1.4-7
		c0.9-2,2.2-3.5,3.9-4.6c1.7-1.1,3.6-1.6,5.7-1.6c1.7,0,3,0.3,4,0.8c1,0.5,1.7,1.2,2.2,1.9c0.5,0.7,0.9,1.3,1.2,1.7h0.3V1.1h3.9
		v34.3h-3.8v-3.9h-0.5c-0.3,0.5-0.7,1.1-1.2,1.8c-0.5,0.7-1.3,1.3-2.3,1.9C547.2,35.6,545.9,35.9,544.3,35.9z M544.8,32.3
		c1.6,0,2.9-0.4,4-1.2c1.1-0.8,1.9-2,2.5-3.5c0.6-1.5,0.8-3.2,0.8-5.1c0-1.9-0.3-3.6-0.8-5c-0.6-1.4-1.4-2.6-2.5-3.4
		c-1.1-0.8-2.5-1.2-4.1-1.2c-1.7,0-3.1,0.4-4.2,1.3c-1.1,0.8-2,2-2.5,3.5c-0.6,1.5-0.8,3.1-0.8,4.9c0,1.8,0.3,3.5,0.8,5
		c0.6,1.5,1.4,2.7,2.5,3.6C541.8,31.9,543.2,32.3,544.8,32.3z"/>
	<path class="st2" d="M573.9,35.9c-2.5,0-4.6-0.5-6.4-1.6c-1.8-1.1-3.2-2.6-4.1-4.6c-1-2-1.4-4.3-1.4-6.9c0-2.6,0.5-5,1.4-7
		c1-2,2.3-3.6,4.1-4.7c1.7-1.1,3.8-1.7,6.1-1.7c1.3,0,2.7,0.2,4,0.7c1.3,0.5,2.5,1.2,3.6,2.2c1.1,1,1.9,2.3,2.6,4
		c0.6,1.6,1,3.7,1,6.1v1.7h-19.8v-3.4h15.8c0-1.4-0.3-2.7-0.9-3.9c-0.6-1.1-1.4-2-2.5-2.7c-1.1-0.7-2.3-1-3.7-1
		c-1.6,0-2.9,0.4-4.1,1.2c-1.1,0.8-2,1.8-2.6,3c-0.6,1.2-0.9,2.6-0.9,4v2.3c0,1.9,0.3,3.6,1,4.9c0.7,1.4,1.6,2.4,2.8,3.1
		c1.2,0.7,2.6,1,4.2,1c1,0,2-0.1,2.8-0.4c0.8-0.3,1.6-0.7,2.2-1.3c0.6-0.6,1.1-1.4,1.4-2.2l3.8,1.1c-0.4,1.3-1.1,2.4-2,3.4
		c-0.9,1-2.1,1.7-3.5,2.3C577.2,35.6,575.7,35.9,573.9,35.9z"/>
</g>
<g class="st4">
	<path class="st5" d="M925.9,725.7H444.4c-10.8,0-20-7.8-21.7-18.5L324.7,99.9c-2.2-13.4,8.2-25.5,21.7-25.5h481.4
		c10.8,0,20,7.8,21.7,18.5l97.9,607.3C949.8,713.6,939.4,725.7,925.9,725.7z"/>
	<g>
		<path class="st6" d="M612.2,283.7c0,0-3-6.4,3.1-13.8c6.8-8.4,18.2-8.4,18.2-8.4s3.1,7.9-3.8,15.5
			C622.4,285,612.2,283.7,612.2,283.7z M651.6,312.7c-2.2-13,10.4-18.3,10.4-18.3s-8.6-9.7-26.2-9.7c-10.2,0-17.3,4.5-21.5,4.5
			c-4.9,0-13-4.2-22.5-4.2c-14.6,0-28.4,10.1-25.1,29.3c3.4,19.6,25.9,43.9,40.5,43.9c5.1,0,12.2-4,20-4c7.7,0,14,3.8,21.4,3.8
			c15.9,0,23.3-25.7,23.3-25.7S654.1,327.4,651.6,312.7z"/>
		<g>
			<path class="st7" d="M585.3,400.3l14.8,28.5h0.4l5.6-28.5h4.4l-7.1,33.8H599L581,400.3H585.3z"/>
			<path class="st7" d="M617.3,404.5c-0.8,0-1.5-0.3-2.1-0.8c-0.6-0.5-1-1.1-1.1-1.9c-0.1-0.7,0.1-1.4,0.5-1.9
				c0.5-0.5,1.1-0.8,1.9-0.8s1.5,0.3,2.1,0.8c0.6,0.5,1,1.1,1.1,1.9c0.1,0.7-0.1,1.4-0.5,1.9C618.7,404.3,618,404.5,617.3,404.5z
				 M620,434.1l-4.1-25.4h3.9l4.1,25.4H620z"/>
			<path class="st7" d="M641.4,434.7c-2.5,0-4.7-0.5-6.7-1.6c-2-1.1-3.6-2.6-4.9-4.6c-1.3-1.9-2.1-4.2-2.5-6.8
				c-0.4-2.6-0.3-4.9,0.3-6.9s1.7-3.5,3.3-4.7c1.6-1.1,3.5-1.7,5.8-1.7c1.3,0,2.7,0.2,4.1,0.7c1.4,0.4,2.7,1.2,3.9,2.1
				c1.2,1,2.3,2.3,3.2,3.9c0.9,1.6,1.5,3.6,1.9,6l0.3,1.6h-19.8l-0.6-3.4h15.8c-0.2-1.4-0.7-2.7-1.5-3.8c-0.8-1.1-1.7-2-2.9-2.7
				s-2.5-1-3.9-1c-1.6,0-2.9,0.4-3.9,1.1c-1,0.8-1.7,1.8-2.2,3c-0.4,1.2-0.5,2.5-0.3,3.9l0.4,2.2c0.3,1.9,0.9,3.5,1.8,4.9
				c0.9,1.3,2,2.3,3.3,3c1.3,0.7,2.8,1,4.4,1c1,0,2-0.1,2.8-0.4c0.8-0.3,1.4-0.7,2-1.3c0.5-0.6,0.9-1.3,1.1-2.2l4,1.1
				c-0.2,1.3-0.7,2.4-1.5,3.4c-0.8,1-1.8,1.7-3.2,2.2C644.7,434.4,643.1,434.7,641.4,434.7z"/>
			<path class="st7" d="M663.1,434.1l-11.9-25.4h4.2l8.7,19.4h0.3l2.4-19.4h4.2l8.6,19.4h0.3l2.4-19.4h4.2l-3.7,25.4h-3.9l-8.8-19.5
				h-0.4l-2.5,19.5H663.1z"/>
		</g>
	</g>
</g>
<g class="st4">
	<path class="st5" d="M1457.7,725.7H976.2c-10.8,0-20-7.8-21.7-18.5L856.6,99.9c-2.2-13.4,8.2-25.5,21.7-25.5h481.4
		c10.8,0,20,7.8,21.7,18.5l98,607.3C1481.6,713.6,1471.2,725.7,1457.7,725.7z"/>
	<g>
		<g>
			<path class="st7" d="M1122.7,400.3l14.8,28.5h0.4l5.6-28.5h4.4l-7.1,33.8h-4.3l-18.1-33.8H1122.7z"/>
			<path class="st7" d="M1154.6,404.5c-0.8,0-1.5-0.3-2.1-0.8c-0.6-0.5-1-1.1-1.1-1.9c-0.1-0.7,0.1-1.4,0.5-1.9
				c0.5-0.5,1.1-0.8,1.9-0.8s1.5,0.3,2.1,0.8c0.6,0.5,1,1.1,1.1,1.9s-0.1,1.4-0.5,1.9C1156,404.3,1155.4,404.5,1154.6,404.5z
				 M1157.4,434.1l-4.1-25.4h4l4.1,25.4H1157.4z"/>
			<path class="st7" d="M1178.8,434.7c-2.5,0-4.7-0.5-6.7-1.6c-2-1.1-3.6-2.6-4.9-4.6c-1.3-1.9-2.1-4.2-2.5-6.8
				c-0.4-2.6-0.3-4.9,0.3-6.9c0.7-2,1.8-3.5,3.3-4.7c1.6-1.1,3.5-1.7,5.8-1.7c1.3,0,2.7,0.2,4.1,0.7c1.4,0.4,2.7,1.2,3.9,2.1
				c1.2,1,2.3,2.3,3.2,3.9c0.9,1.6,1.5,3.6,1.9,6l0.3,1.6h-19.8l-0.5-3.4h15.8c-0.2-1.4-0.7-2.7-1.5-3.8c-0.8-1.1-1.7-2-2.9-2.7
				c-1.2-0.6-2.4-1-3.9-1c-1.6,0-2.9,0.4-3.9,1.1c-1,0.8-1.8,1.8-2.2,3c-0.4,1.2-0.5,2.5-0.3,3.9l0.4,2.2c0.3,1.9,0.9,3.5,1.8,4.9
				c0.9,1.3,2,2.3,3.3,3c1.3,0.7,2.8,1,4.4,1c1,0,2-0.1,2.8-0.4c0.8-0.3,1.4-0.7,2-1.3c0.5-0.6,0.9-1.3,1.1-2.2l4,1.1
				c-0.2,1.3-0.7,2.4-1.5,3.4c-0.8,1-1.8,1.7-3.2,2.2C1182.1,434.4,1180.5,434.7,1178.8,434.7z"/>
			<path class="st7" d="M1200.5,434.1l-11.9-25.4h4.1l8.7,19.4h0.3l2.4-19.4h4.2l8.6,19.4h0.3l2.4-19.4h4.2l-3.7,25.4h-3.9
				l-8.8-19.5h-0.4l-2.5,19.5H1200.5z"/>
		</g>
		<path class="st7" d="M1188.8,301.8l7.2-15.8c0.4-0.9-0.2-2-1.4-2.5c-1.2-0.5-2.5-0.2-2.9,0.7l-7.3,16c-9.3-3.2-19.4-5-29.8-5
			s-19.6,1.8-27.3,5l-15.1-16c-0.8-0.9-2.3-1.2-3.2-0.7c-0.9,0.5-1,1.6-0.2,2.5l14.9,15.8c-17,8.5-26.1,24.4-23.8,43.1h133.4
			C1226.7,326.3,1209.9,310.3,1188.8,301.8z M1132.3,329.5c-3.1,0-6.1-2.1-6.7-4.6c-0.6-2.5,1.4-4.6,4.5-4.6c3.1,0,6.1,2.1,6.7,4.6
			C1137.4,327.4,1135.4,329.5,1132.3,329.5z M1193.5,329.5c-3.1,0-6.1-2.1-6.7-4.6c-0.6-2.5,1.4-4.6,4.5-4.6c3.1,0,6.1,2.1,6.7,4.6
			C1198.6,327.4,1196.6,329.5,1193.5,329.5z"/>
	</g>
</g>
<g class="st4">

		<linearGradient id="SVGID_2_" gradientUnits="userSpaceOnUse" x1="191.6241" y1="-30.4909" x2="336.5575" y2="153.1707" gradientTransform="matrix(1 0 0 -1 0 1095.2756)">
		<stop  offset="0" style="stop-color:#EA4961"/>
		<stop  offset="0.8905" style="stop-color:#7F52FF"/>
	</linearGradient>
	<path class="st8" d="M59,797.8l44.6,278.1c1.7,10.7,10.9,18.5,21.7,18.5l480.7,0c13.5,0,23.9-12.1,21.7-25.5l-44.4-278.1
		c-1.7-10.7-10.9-18.5-21.8-18.5l-480.8,0C67.2,772.4,56.9,784.5,59,797.8z"/>
	<g>
		<path class="st1" d="M240.1,857c-0.8,0-1.5-0.3-2.1-0.8c-0.6-0.5-1-1.2-1.1-1.9c-0.1-0.7,0.1-1.4,0.5-1.9c0.5-0.5,1.1-0.8,1.9-0.8
			c0.8,0,1.5,0.3,2.1,0.8c0.6,0.5,1,1.1,1.1,1.9c0.1,0.7-0.1,1.4-0.5,1.9C241.5,856.8,240.9,857,240.1,857z M242.7,887l-4-25.7h4
			l4,25.7H242.7z"/>
		<path class="st1" d="M126.7,867.1l-3.4,1c-0.3-0.6-0.7-1.2-1.2-1.7c-0.5-0.6-1.2-1-2-1.4c-0.8-0.4-1.8-0.6-2.9-0.6
			c-1.6,0-2.8,0.4-3.8,1.1c-0.9,0.7-1.3,1.6-1.1,2.7c0.2,1,0.6,1.8,1.4,2.3c0.8,0.6,2,1,3.6,1.4l4,0.9c2.4,0.5,4.2,1.4,5.5,2.5
			c1.3,1.1,2.1,2.6,2.4,4.4c0.2,1.5,0,2.8-0.7,3.9c-0.7,1.1-1.7,2.1-3.1,2.7c-1.4,0.7-3.1,1-5.1,1c-2.6,0-4.9-0.6-6.8-1.7
			c-1.9-1.1-3.2-2.8-4-5l3.6-0.9c0.6,1.4,1.4,2.4,2.5,3.1c1.1,0.7,2.5,1,4.1,1c1.8,0,3.2-0.4,4.2-1.2c1-0.8,1.4-1.7,1.2-2.8
			c-0.1-0.9-0.6-1.6-1.3-2.2c-0.7-0.6-1.7-1.1-3.1-1.4l-4.5-1c-2.4-0.6-4.3-1.4-5.6-2.6c-1.3-1.2-2.1-2.7-2.3-4.4
			c-0.2-1.4,0-2.7,0.6-3.8c0.6-1.1,1.6-2,3-2.6c1.3-0.6,2.9-1,4.7-1c2.5,0,4.6,0.6,6.3,1.7S125.8,865.3,126.7,867.1z"/>
		<path class="st1" d="M174.4,887.6c-2.5,0-4.7-0.6-6.7-1.7c-2-1.1-3.6-2.6-4.8-4.6c-1.3-2-2.1-4.3-2.5-6.9c-0.4-2.6-0.3-5,0.4-7
			c0.7-2,1.8-3.6,3.3-4.7c1.6-1.1,3.5-1.7,5.8-1.7c1.3,0,2.7,0.2,4.1,0.7c1.4,0.5,2.7,1.2,3.9,2.2c1.2,1,2.3,2.3,3.2,4
			c0.9,1.6,1.5,3.7,1.9,6.1l0.3,1.7h-19.8l-0.5-3.4h15.8c-0.2-1.4-0.7-2.7-1.5-3.9c-0.8-1.1-1.7-2-2.9-2.7c-1.2-0.7-2.5-1-3.9-1
			c-1.6,0-2.9,0.4-3.9,1.2c-1,0.8-1.7,1.8-2.2,3c-0.4,1.2-0.5,2.6-0.3,4l0.3,2.3c0.3,1.9,0.9,3.6,1.8,4.9c0.9,1.4,2,2.4,3.3,3.1
			c1.3,0.7,2.8,1.1,4.4,1.1c1,0,2-0.1,2.8-0.4c0.8-0.3,1.5-0.7,2-1.3c0.5-0.6,0.9-1.3,1.1-2.2l4,1.1c-0.2,1.3-0.7,2.4-1.5,3.4
			c-0.8,1-1.9,1.7-3.2,2.3C177.6,887.3,176.1,887.6,174.4,887.6z"/>
		<path class="st1" d="M213.3,857c-0.8,0-1.5-0.3-2.1-0.8c-0.6-0.5-1-1.2-1.1-1.9c-0.1-0.7,0.1-1.4,0.5-1.9c0.5-0.5,1.1-0.8,1.9-0.8
			c0.8,0,1.5,0.3,2.1,0.8c0.6,0.5,1,1.1,1.1,1.9c0.1,0.7-0.1,1.4-0.5,1.9C214.7,856.8,214.1,857,213.3,857z M215.9,887l-4-25.7h3.9
			l4,25.7H215.9z"/>
		<path class="st1" d="M351.3,852.8l5.3,34.3h-4.2l-5.3-34.3H351.3z"/>
		<path class="st1" d="M102.3,814.3c-0.8,0-1.5-0.3-2.1-0.8c-0.6-0.5-1-1.1-1.1-1.9c-0.1-0.7,0.1-1.4,0.5-1.9
			c0.5-0.5,1.1-0.8,1.9-0.8s1.5,0.3,2.1,0.8c0.6,0.5,1,1.2,1.1,1.9c0.1,0.7-0.1,1.4-0.5,1.9C103.7,814.1,103.1,814.3,102.3,814.3z
			 M104.9,844.3l-4-25.7h3.9l4,25.7H104.9z"/>
		<path class="st1" d="M142.2,827.2c0.6,3.6,0.4,6.7-0.5,9.4c-0.9,2.6-2.4,4.7-4.4,6.1c-2.1,1.4-4.5,2.1-7.5,2.1
			c-2.9,0-5.6-0.7-8.1-2.1s-4.6-3.5-6.3-6.1c-1.7-2.6-2.8-5.7-3.4-9.4c-0.5-3.6-0.4-6.7,0.5-9.4c0.9-2.6,2.4-4.7,4.4-6.1
			c2.1-1.4,4.5-2.1,7.5-2.1c2.9,0,5.6,0.7,8.1,2.1c2.5,1.4,4.6,3.5,6.3,6.1C140.5,820.5,141.7,823.6,142.2,827.2z M138.2,827.2
			c-0.5-3-1.3-5.5-2.6-7.5c-1.3-2-2.9-3.6-4.7-4.6c-1.8-1.1-3.8-1.6-5.9-1.6s-3.9,0.5-5.4,1.6c-1.5,1.1-2.6,2.6-3.3,4.6
			c-0.7,2-0.8,4.5-0.3,7.5c0.5,3,1.3,5.5,2.6,7.5c1.3,2,2.9,3.6,4.7,4.6c1.8,1.1,3.8,1.6,5.9,1.6c2.1,0,3.9-0.5,5.4-1.6
			c1.5-1.1,2.6-2.6,3.3-4.6C138.6,832.7,138.7,830.2,138.2,827.2z"/>
		<path class="st1" d="M166,818.6c-0.5-1.7-1.5-3-3.1-3.9c-1.6-0.9-3.4-1.4-5.5-1.4c-1.5,0-2.8,0.3-3.9,0.7c-1.1,0.5-1.8,1.2-2.3,2
			c-0.5,0.9-0.7,1.8-0.5,2.9c0.1,0.9,0.5,1.7,1,2.4c0.5,0.7,1.2,1.2,1.9,1.6c0.8,0.4,1.5,0.8,2.3,1.1c0.8,0.3,1.5,0.5,2.2,0.7
			l3.6,0.9c0.9,0.2,2,0.6,3.1,1c1.2,0.4,2.3,1,3.4,1.7c1.1,0.7,2.1,1.6,2.9,2.7c0.8,1.1,1.4,2.5,1.6,4.1c0.3,1.9,0.1,3.5-0.7,5
			c-0.7,1.5-2,2.7-3.7,3.6c-1.7,0.9-3.9,1.3-6.5,1.3c-2.5,0-4.6-0.4-6.6-1.2c-1.9-0.8-3.5-1.9-4.7-3.3c-1.2-1.4-2.1-3.1-2.5-4.9h4.3
			c0.3,1.3,0.9,2.4,1.8,3.2c0.9,0.8,2,1.5,3.2,1.9c1.2,0.4,2.5,0.6,3.9,0.6c1.6,0,3-0.3,4.2-0.8s2.1-1.2,2.7-2.2
			c0.6-0.9,0.8-2,0.6-3.3c-0.2-1.1-0.6-2.1-1.4-2.8c-0.7-0.7-1.7-1.3-2.8-1.7c-1.1-0.4-2.3-0.8-3.6-1.2l-4.4-1.2
			c-2.8-0.8-5.1-1.9-6.9-3.3c-1.8-1.4-2.8-3.3-3.2-5.6c-0.3-1.9,0-3.6,0.8-5c0.8-1.4,2.1-2.5,3.7-3.3c1.7-0.8,3.6-1.2,5.8-1.2
			c2.2,0,4.2,0.4,6.1,1.2c1.8,0.8,3.4,1.9,4.6,3.2c1.2,1.4,2,2.9,2.3,4.6H166z"/>
		<path class="st1" d="M136.9,896.7l-5.4-35.3h3.8l0.6,4.1h0.5c0.2-0.4,0.5-1,0.9-1.7c0.4-0.7,1.1-1.3,2-1.9
			c0.9-0.5,2.2-0.8,3.9-0.8c2.2,0,4.2,0.5,6,1.6c1.8,1.1,3.4,2.6,4.6,4.6c1.2,2,2.1,4.3,2.5,7c0.4,2.7,0.3,5.1-0.3,7.1
			c-0.6,2-1.7,3.5-3.1,4.6c-1.5,1.1-3.3,1.6-5.4,1.6c-1.7,0-3-0.3-4.1-0.8c-1.1-0.5-1.9-1.2-2.6-1.9c-0.6-0.7-1.1-1.3-1.5-1.8h-0.3
			l2.1,13.6H136.9z M137.3,874.2c0.3,1.9,0.8,3.6,1.6,5.1c0.8,1.5,1.8,2.6,3,3.5c1.2,0.8,2.6,1.2,4.2,1.2c1.7,0,3-0.4,3.9-1.3
			c1-0.9,1.6-2.1,2-3.5c0.3-1.5,0.4-3.1,0.1-5c-0.3-1.8-0.8-3.4-1.6-4.9c-0.8-1.5-1.8-2.6-3-3.5c-1.2-0.8-2.7-1.3-4.4-1.3
			c-1.6,0-2.9,0.4-3.9,1.2c-1,0.8-1.6,1.9-2,3.4C137.1,870.5,137.1,872.3,137.3,874.2z"/>
		<path class="st1" d="M200.8,887.6c-2.4,0-4.6-0.6-6.5-1.7c-1.9-1.1-3.5-2.7-4.8-4.7c-1.2-2-2.1-4.3-2.5-6.8
			c-0.4-2.6-0.3-4.9,0.4-6.9c0.7-2,1.8-3.6,3.3-4.7c1.6-1.1,3.5-1.7,5.8-1.7c1.8,0,3.5,0.3,5,1c1.6,0.7,2.9,1.6,4,2.8
			c1.1,1.2,1.9,2.6,2.4,4.2h-3.9c-0.5-1.2-1.3-2.2-2.5-3.1c-1.2-0.9-2.6-1.4-4.4-1.4c-1.5,0-2.8,0.4-3.9,1.2c-1,0.8-1.8,1.9-2.2,3.4
			s-0.5,3.1-0.2,5.1c0.3,2,0.9,3.7,1.7,5.2c0.8,1.5,1.9,2.6,3.2,3.4c1.3,0.8,2.7,1.2,4.3,1.2c1,0,1.9-0.2,2.7-0.5
			c0.8-0.4,1.4-0.9,1.9-1.5s0.8-1.5,0.9-2.4h3.9c0,1.5-0.3,2.9-1,4.1c-0.7,1.2-1.7,2.2-3,2.9C204.3,887.2,202.7,887.6,200.8,887.6z"
			/>
		<path class="st1" d="M233.9,861.3l0.5,3.3h-13.9l-0.5-3.3H233.9z M228.1,887l-4.5-29.2c-0.2-1.5-0.1-2.7,0.5-3.7
			c0.5-1,1.3-1.7,2.4-2.2c1-0.5,2.2-0.7,3.4-0.7c1,0,1.8,0.1,2.4,0.2c0.6,0.2,1.1,0.3,1.4,0.4l-0.6,3.4c-0.2-0.1-0.5-0.1-0.9-0.3
			c-0.4-0.1-0.8-0.2-1.4-0.2c-1.3,0-2.2,0.3-2.7,1c-0.5,0.7-0.6,1.6-0.4,2.9l4.4,28.3H228.1z"/>
		<path class="st1" d="M263.7,887.6c-2.4,0-4.6-0.6-6.5-1.7c-1.9-1.1-3.5-2.7-4.8-4.7c-1.2-2-2.1-4.3-2.5-6.8
			c-0.4-2.6-0.3-4.9,0.4-6.9c0.7-2,1.8-3.6,3.3-4.7c1.6-1.1,3.5-1.7,5.8-1.7c1.8,0,3.5,0.3,5,1c1.6,0.7,2.9,1.6,4,2.8
			c1.1,1.2,1.9,2.6,2.4,4.2H267c-0.5-1.2-1.3-2.2-2.5-3.1c-1.2-0.9-2.6-1.4-4.4-1.4c-1.5,0-2.8,0.4-3.9,1.2c-1,0.8-1.8,1.9-2.2,3.4
			s-0.5,3.1-0.2,5.1c0.3,2,0.9,3.7,1.7,5.2c0.8,1.5,1.9,2.6,3.2,3.4c1.3,0.8,2.7,1.2,4.3,1.2c1,0,1.9-0.2,2.7-0.5
			c0.8-0.4,1.4-0.9,1.9-1.5c0.5-0.7,0.8-1.5,0.9-2.4h3.9c0,1.5-0.3,2.9-1,4.1c-0.7,1.2-1.7,2.2-3,2.9
			C267.2,887.2,265.6,887.6,263.7,887.6z"/>
		<path class="st1" d="M293.3,887H289l7.3-34.3h4.3l17.9,34.3h-4.4l-14.7-28.9h-0.3L293.3,887z M292.9,873.6h17.6l0.6,3.7h-17.6
			L292.9,873.6z"/>
		<path class="st1" d="M323.1,887l-5.3-34.3h11.6c2.7,0,5,0.5,6.8,1.4c1.9,1,3.3,2.3,4.4,3.9c1.1,1.6,1.8,3.5,2.1,5.5
			c0.3,2,0.2,3.8-0.4,5.5c-0.6,1.6-1.6,3-3.2,3.9c-1.6,1-3.7,1.5-6.3,1.5h-8.3l-0.6-3.7h8.2c1.8,0,3.3-0.3,4.3-1
			c1-0.6,1.7-1.5,2-2.6c0.3-1.1,0.4-2.3,0.2-3.7c-0.2-1.4-0.7-2.6-1.3-3.7c-0.7-1.1-1.6-1.9-2.8-2.5c-1.2-0.6-2.8-0.9-4.6-0.9h-7.3
			l4.7,30.6L323.1,887L323.1,887z"/>
		<path class="st1" d="M378.7,867.1l-3.4,1c-0.3-0.6-0.7-1.2-1.2-1.7c-0.5-0.6-1.2-1-2-1.4c-0.8-0.4-1.8-0.6-2.9-0.6
			c-1.6,0-2.8,0.4-3.8,1.1c-0.9,0.7-1.3,1.6-1.1,2.7c0.2,1,0.6,1.8,1.4,2.3c0.8,0.6,2,1,3.6,1.4l4,0.9c2.4,0.5,4.2,1.4,5.5,2.5
			c1.3,1.1,2.1,2.6,2.4,4.4c0.2,1.5,0,2.8-0.7,3.9c-0.7,1.1-1.7,2.1-3.1,2.7c-1.4,0.7-3.1,1-5.1,1c-2.6,0-4.9-0.6-6.8-1.7
			c-1.9-1.1-3.2-2.8-4-5l3.6-0.9c0.6,1.4,1.4,2.4,2.5,3.1c1.1,0.7,2.5,1,4.1,1c1.8,0,3.3-0.4,4.2-1.2c1-0.8,1.4-1.7,1.2-2.8
			c-0.1-0.9-0.6-1.6-1.3-2.2c-0.7-0.6-1.7-1.1-3.1-1.4l-4.5-1c-2.4-0.6-4.3-1.4-5.6-2.6c-1.3-1.2-2.1-2.7-2.3-4.4
			c-0.2-1.4,0-2.7,0.6-3.8c0.6-1.1,1.6-2,3-2.6c1.3-0.6,2.9-1,4.7-1c2.5,0,4.6,0.6,6.3,1.7S377.9,865.3,378.7,867.1z"/>
	</g>
</g>
<g class="st4">
	<linearGradient id="SVGID_3_" gradientUnits="userSpaceOnUse" x1="706.6682" y1="721.8886" x2="866.0826" y2="923.9009">
		<stop  offset="0" style="stop-color:#EA4961"/>
		<stop  offset="0.8905" style="stop-color:#7F52FF"/>
	</linearGradient>
	<path class="st9" d="M1134.8,1094.5H657.2c-10.8,0-20-7.9-21.7-18.5l-44.5-278.1c-2.1-13.4,8.2-25.5,21.7-25.5H1090
		c10.8,0,20,7.8,21.7,18.5l44.9,278.2C1158.7,1082.4,1148.4,1094.5,1134.8,1094.5z"/>
	<g>
		<path class="st1" d="M639.9,844.3h-4.4l7.3-34.3h4.3l17.9,34.3h-4.4L646,815.5h-0.3L639.9,844.3z M639.5,830.9h17.6l0.6,3.7h-17.6
			L639.5,830.9z"/>
		<path class="st1" d="M670.8,828.9l2.4,15.5h-3.9l-4-25.7h3.8l0.6,4h0.3c0.4-1.3,1.2-2.4,2.3-3.2c1.1-0.8,2.6-1.2,4.6-1.2
			c1.7,0,3.3,0.4,4.7,1.1c1.4,0.7,2.6,1.8,3.5,3.2c0.9,1.4,1.6,3.3,1.9,5.4l2.5,16.3h-3.9l-2.5-16.1c-0.3-2-1.1-3.6-2.3-4.7
			c-1.2-1.1-2.8-1.7-4.6-1.7c-1.3,0-2.3,0.3-3.3,0.8c-0.9,0.5-1.6,1.3-2,2.4C670.6,826.1,670.5,827.4,670.8,828.9z"/>
		<path class="st1" d="M705.9,844.9c-2.1,0-4.1-0.5-5.9-1.6c-1.8-1.1-3.3-2.6-4.6-4.6c-1.2-2-2.1-4.4-2.5-7.1c-0.4-2.7-0.3-5,0.3-7
			c0.6-2,1.7-3.5,3.2-4.6c1.5-1.1,3.3-1.6,5.5-1.6c1.7,0,3,0.3,4.1,0.8c1.1,0.5,1.9,1.2,2.5,1.9c0.6,0.7,1.1,1.3,1.5,1.7h0.3
			l-2-12.6h3.9l5.3,34.3h-3.8l-0.6-3.9h-0.5c-0.2,0.5-0.5,1.1-1,1.8c-0.4,0.7-1.1,1.3-2,1.9C708.8,844.6,707.5,844.9,705.9,844.9z
			 M705.9,841.3c1.6,0,2.9-0.4,3.8-1.2c1-0.8,1.6-2,2-3.5c0.3-1.5,0.4-3.2,0.1-5.1c-0.3-1.9-0.8-3.6-1.6-5c-0.8-1.4-1.8-2.6-3-3.4
			c-1.2-0.8-2.6-1.2-4.2-1.2c-1.7,0-3,0.4-4,1.3c-1,0.8-1.6,2-2,3.5c-0.3,1.5-0.4,3.1-0.1,4.9c0.3,1.8,0.8,3.5,1.6,5
			c0.8,1.5,1.8,2.7,3.1,3.5C702.8,840.9,704.2,841.3,705.9,841.3z"/>
		<path class="st1" d="M724.7,844.3l-4-25.7h3.8l0.6,3.9h0.3c0.3-1.3,1-2.3,2.1-3.1c1.1-0.8,2.4-1.2,4-1.2c0.3,0,0.7,0,1.1,0
			c0.4,0,0.8,0,1,0l0.6,4c-0.1,0-0.5-0.1-0.9-0.2c-0.5-0.1-1-0.1-1.5-0.1c-1.2,0-2.3,0.3-3.2,0.8c-0.9,0.5-1.6,1.2-2,2.1
			c-0.4,0.9-0.5,1.9-0.4,3.1l2.5,16.3L724.7,844.3L724.7,844.3z"/>
		<path class="st1" d="M752.1,844.9c-2.3,0-4.5-0.5-6.4-1.7c-1.9-1.1-3.5-2.7-4.8-4.6c-1.3-2-2.1-4.3-2.5-7c-0.4-2.7-0.3-5,0.4-7
			c0.7-2,1.8-3.6,3.4-4.6c1.6-1.1,3.5-1.6,5.9-1.6s4.5,0.5,6.4,1.6c1.9,1.1,3.5,2.7,4.8,4.6s2.1,4.3,2.5,7c0.4,2.7,0.3,5-0.4,7
			c-0.7,2-1.8,3.5-3.4,4.6C756.3,844.3,754.4,844.9,752.1,844.9z M751.5,841.3c1.8,0,3.1-0.5,4.2-1.4c1-0.9,1.7-2.1,2-3.6
			c0.3-1.5,0.3-3.1,0.1-4.8c-0.3-1.7-0.8-3.3-1.6-4.8c-0.8-1.5-1.8-2.7-3.1-3.6c-1.3-0.9-2.8-1.4-4.6-1.4c-1.8,0-3.1,0.5-4.1,1.4
			c-1,0.9-1.7,2.1-2,3.6c-0.3,1.5-0.3,3.1-0.1,4.8c0.3,1.7,0.8,3.3,1.6,4.8c0.8,1.5,1.8,2.7,3.1,3.6
			C748.2,840.9,749.8,841.3,751.5,841.3z"/>
		<path class="st1" d="M766.4,814.3c-0.8,0-1.5-0.3-2.1-0.8c-0.6-0.5-1-1.1-1.1-1.9c-0.1-0.7,0.1-1.4,0.5-1.9
			c0.5-0.5,1.1-0.8,1.9-0.8c0.8,0,1.5,0.3,2.1,0.8c0.6,0.5,1,1.2,1.1,1.9c0.1,0.7-0.1,1.4-0.5,1.9
			C767.8,814.1,767.1,814.3,766.4,814.3z M769,844.3l-4-25.7h3.9l4,25.7H769z"/>
		<path class="st1" d="M789.3,844.9c-2.1,0-4.1-0.5-5.9-1.6c-1.8-1.1-3.3-2.6-4.6-4.6c-1.2-2-2.1-4.4-2.5-7.1c-0.4-2.7-0.3-5,0.3-7
			c0.6-2,1.7-3.5,3.2-4.6c1.5-1.1,3.3-1.6,5.5-1.6c1.7,0,3.1,0.3,4.1,0.8c1.1,0.5,1.9,1.2,2.5,1.9c0.6,0.7,1.1,1.3,1.5,1.7h0.3
			l-2-12.6h3.9l5.3,34.3h-3.8l-0.6-3.9h-0.5c-0.2,0.5-0.5,1.1-1,1.8c-0.4,0.7-1.1,1.3-2,1.9C792.2,844.6,790.9,844.9,789.3,844.9z
			 M789.2,841.3c1.6,0,2.9-0.4,3.8-1.2c1-0.8,1.6-2,2-3.5c0.3-1.5,0.4-3.2,0.1-5.1c-0.3-1.9-0.8-3.6-1.6-5c-0.8-1.4-1.8-2.6-3-3.4
			c-1.2-0.8-2.6-1.2-4.2-1.2c-1.7,0-3,0.4-4,1.3c-1,0.8-1.6,2-2,3.5c-0.3,1.5-0.3,3.1-0.1,4.9c0.3,1.8,0.8,3.5,1.6,5
			c0.8,1.5,1.8,2.7,3.1,3.5C786.1,840.9,787.6,841.3,789.2,841.3z"/>
		<path class="st1" d="M659.7,867.1l-3.4,1c-0.3-0.6-0.7-1.2-1.2-1.7c-0.5-0.6-1.2-1-2-1.4c-0.8-0.4-1.8-0.6-2.9-0.6
			c-1.6,0-2.8,0.4-3.8,1.1c-0.9,0.7-1.3,1.6-1.1,2.7c0.2,1,0.6,1.8,1.4,2.3c0.8,0.6,2,1,3.6,1.4l4,0.9c2.4,0.5,4.2,1.4,5.5,2.5
			c1.3,1.1,2.1,2.6,2.4,4.4c0.2,1.5,0,2.8-0.7,3.9c-0.7,1.1-1.7,2.1-3.1,2.7c-1.4,0.7-3.1,1-5.1,1c-2.6,0-4.9-0.6-6.8-1.7
			c-1.9-1.1-3.2-2.8-4-5l3.6-0.9c0.6,1.4,1.4,2.4,2.5,3.1c1.1,0.7,2.5,1,4.1,1c1.8,0,3.3-0.4,4.2-1.2c1-0.8,1.4-1.7,1.2-2.8
			c-0.1-0.9-0.6-1.6-1.3-2.2c-0.7-0.6-1.7-1.1-3.1-1.4l-4.5-1c-2.4-0.6-4.3-1.4-5.6-2.6c-1.3-1.2-2.1-2.7-2.3-4.4
			c-0.2-1.4,0-2.7,0.6-3.8c0.6-1.1,1.6-2,3-2.6c1.3-0.6,2.9-1,4.7-1c2.5,0,4.6,0.6,6.3,1.7C657.6,863.8,658.8,865.3,659.7,867.1z"/>
		<path class="st1" d="M670,896.7l-5.4-35.3h3.8l0.6,4.1h0.5c0.2-0.4,0.5-1,0.9-1.7c0.4-0.7,1.1-1.3,2-1.9c0.9-0.5,2.2-0.8,3.9-0.8
			c2.2,0,4.2,0.5,6,1.6c1.8,1.1,3.4,2.6,4.6,4.6c1.2,2,2.1,4.3,2.5,7c0.4,2.7,0.3,5.1-0.3,7.1c-0.6,2-1.7,3.5-3.1,4.6
			c-1.5,1.1-3.3,1.6-5.4,1.6c-1.7,0-3-0.3-4.1-0.8c-1.1-0.5-1.9-1.2-2.6-1.9c-0.6-0.7-1.1-1.3-1.5-1.8h-0.3l2.1,13.6H670z
			 M670.4,874.2c0.3,1.9,0.8,3.6,1.7,5.1c0.8,1.5,1.8,2.6,3,3.5c1.2,0.8,2.6,1.2,4.2,1.2c1.7,0,3-0.4,3.9-1.3c1-0.9,1.6-2.1,2-3.5
			c0.3-1.5,0.4-3.1,0.1-5c-0.3-1.8-0.8-3.4-1.6-4.9c-0.8-1.5-1.8-2.6-3-3.5c-1.2-0.8-2.7-1.3-4.4-1.3c-1.6,0-2.9,0.4-3.9,1.2
			c-1,0.8-1.6,1.9-2,3.4C670.2,870.6,670.1,872.3,670.4,874.2z"/>
		<path class="st1" d="M707.5,887.6c-2.5,0-4.7-0.6-6.7-1.7c-2-1.1-3.6-2.6-4.8-4.6c-1.3-2-2.1-4.3-2.5-6.9c-0.4-2.6-0.3-5,0.4-7
			c0.7-2,1.8-3.6,3.3-4.7c1.6-1.1,3.5-1.7,5.8-1.7c1.3,0,2.7,0.2,4.1,0.7c1.4,0.5,2.7,1.2,3.9,2.2s2.3,2.3,3.2,4
			c0.9,1.6,1.5,3.7,1.9,6.1l0.3,1.7h-19.8l-0.5-3.4h15.8c-0.2-1.4-0.7-2.7-1.5-3.9c-0.8-1.1-1.7-2-2.9-2.7c-1.2-0.7-2.5-1-3.9-1
			c-1.6,0-2.9,0.4-3.9,1.2c-1,0.8-1.7,1.8-2.2,3c-0.4,1.2-0.5,2.6-0.3,4l0.3,2.3c0.3,1.9,0.9,3.6,1.8,4.9c0.9,1.4,2,2.4,3.3,3.1
			c1.3,0.7,2.8,1.1,4.4,1.1c1,0,2-0.1,2.8-0.4c0.8-0.3,1.5-0.7,2-1.3c0.5-0.6,0.9-1.3,1.1-2.2l4,1.1c-0.2,1.3-0.7,2.4-1.5,3.4
			c-0.8,1-1.9,1.7-3.2,2.3C710.7,887.3,709.2,887.6,707.5,887.6z"/>
		<path class="st1" d="M733.9,887.6c-2.4,0-4.6-0.6-6.5-1.7c-1.9-1.1-3.5-2.7-4.8-4.7c-1.2-2-2.1-4.3-2.5-6.8
			c-0.4-2.6-0.3-4.9,0.4-6.9c0.7-2,1.8-3.6,3.3-4.7c1.6-1.1,3.5-1.7,5.8-1.7c1.8,0,3.5,0.3,5,1c1.6,0.7,2.9,1.6,4,2.8
			c1.1,1.2,1.9,2.6,2.4,4.2h-3.9c-0.5-1.2-1.3-2.2-2.5-3.1c-1.2-0.9-2.6-1.4-4.4-1.4c-1.5,0-2.8,0.4-3.9,1.2c-1,0.8-1.8,1.9-2.2,3.4
			s-0.5,3.1-0.2,5.1c0.3,2,0.9,3.7,1.7,5.2c0.8,1.5,1.9,2.6,3.2,3.4c1.3,0.8,2.7,1.2,4.3,1.2c1,0,1.9-0.2,2.7-0.5
			c0.8-0.4,1.4-0.9,1.9-1.5s0.8-1.5,0.9-2.4h3.9c0,1.5-0.3,2.9-1,4.1c-0.7,1.2-1.7,2.2-3,2.9C737.4,887.2,735.8,887.6,733.9,887.6z"
			/>
		<path class="st1" d="M746.4,857c-0.8,0-1.5-0.3-2.1-0.8c-0.6-0.5-1-1.2-1.1-1.9c-0.1-0.7,0.1-1.4,0.5-1.9c0.5-0.5,1.1-0.8,1.9-0.8
			c0.8,0,1.5,0.3,2.1,0.8c0.6,0.5,1,1.1,1.1,1.9c0.1,0.7-0.1,1.4-0.5,1.9C747.8,856.8,747.2,857,746.4,857z M749,887l-4-25.7h3.9
			l4,25.7H749z"/>
		<path class="st1" d="M767,861.3l0.5,3.3h-13.9l-0.5-3.3H767z M761.2,887l-4.5-29.2c-0.2-1.5-0.1-2.7,0.5-3.7
			c0.5-1,1.3-1.7,2.4-2.2c1-0.5,2.2-0.7,3.4-0.7c1,0,1.8,0.1,2.4,0.2c0.6,0.2,1.1,0.3,1.4,0.4l-0.6,3.4c-0.2-0.1-0.5-0.1-0.9-0.3
			c-0.4-0.1-0.8-0.2-1.4-0.2c-1.3,0-2.2,0.3-2.7,1c-0.5,0.7-0.6,1.6-0.4,2.9l4.4,28.3H761.2z"/>
		<path class="st1" d="M773.2,857c-0.8,0-1.5-0.3-2.1-0.8c-0.6-0.5-1-1.2-1.1-1.9c-0.1-0.7,0.1-1.4,0.5-1.9c0.5-0.5,1.1-0.8,1.9-0.8
			c0.8,0,1.5,0.3,2.1,0.8c0.6,0.5,1,1.1,1.1,1.9c0.1,0.7-0.1,1.4-0.5,1.9C774.6,856.8,774,857,773.2,857z M775.8,887l-4-25.7h3.9
			l4,25.7H775.8z"/>
		<path class="st1" d="M796.8,887.6c-2.4,0-4.6-0.6-6.5-1.7c-1.9-1.1-3.5-2.7-4.8-4.7c-1.2-2-2.1-4.3-2.5-6.8
			c-0.4-2.6-0.3-4.9,0.4-6.9c0.7-2,1.8-3.6,3.3-4.7c1.6-1.1,3.5-1.7,5.8-1.7c1.8,0,3.5,0.3,5,1c1.6,0.7,2.9,1.6,4,2.8
			c1.1,1.2,1.9,2.6,2.4,4.2h-3.9c-0.5-1.2-1.3-2.2-2.5-3.1c-1.2-0.9-2.6-1.4-4.4-1.4c-1.5,0-2.8,0.4-3.9,1.2c-1,0.8-1.8,1.9-2.2,3.4
			c-0.4,1.4-0.5,3.1-0.2,5.1c0.3,2,0.9,3.7,1.7,5.2c0.9,1.5,1.9,2.6,3.2,3.4c1.3,0.8,2.7,1.2,4.3,1.2c1,0,1.9-0.2,2.7-0.5
			c0.8-0.4,1.4-0.9,1.9-1.5c0.5-0.7,0.8-1.5,0.9-2.4h3.9c0,1.5-0.3,2.9-1,4.1c-0.7,1.2-1.7,2.2-3,2.9
			C800.3,887.2,798.7,887.6,796.8,887.6z"/>
		<path class="st1" d="M826.4,887h-4.4l7.3-34.3h4.3l17.9,34.3h-4.4l-14.7-28.9h-0.3L826.4,887z M826,873.6h17.6l0.6,3.7h-17.6
			L826,873.6z"/>
		<path class="st1" d="M856.2,887l-5.3-34.3h11.6c2.7,0,5,0.5,6.8,1.4c1.9,1,3.3,2.3,4.4,3.9c1.1,1.6,1.8,3.5,2.1,5.5
			c0.3,2,0.2,3.8-0.4,5.5c-0.6,1.6-1.6,3-3.2,3.9s-3.7,1.5-6.3,1.5h-8.3l-0.6-3.7h8.2c1.8,0,3.3-0.3,4.3-1c1-0.6,1.7-1.5,2-2.6
			c0.3-1.1,0.4-2.3,0.2-3.7c-0.2-1.4-0.7-2.6-1.3-3.7c-0.7-1.1-1.6-1.9-2.8-2.5c-1.2-0.6-2.8-0.9-4.6-0.9h-7.3l4.7,30.6L856.2,887
			L856.2,887z"/>
		<path class="st1" d="M884.3,852.8l5.3,34.3h-4.2l-5.3-34.3H884.3z"/>
		<path class="st1" d="M911.8,867.1l-3.4,1c-0.3-0.6-0.7-1.2-1.2-1.7c-0.5-0.6-1.2-1-2-1.4c-0.8-0.4-1.8-0.6-2.9-0.6
			c-1.6,0-2.8,0.4-3.8,1.1c-0.9,0.7-1.3,1.6-1.1,2.7c0.2,1,0.6,1.8,1.4,2.3c0.8,0.6,2,1,3.6,1.4l4,0.9c2.4,0.5,4.2,1.4,5.5,2.5
			c1.3,1.1,2.1,2.6,2.4,4.4c0.2,1.5,0,2.8-0.7,3.9c-0.7,1.2-1.7,2.1-3.1,2.7c-1.4,0.7-3.1,1-5.1,1c-2.6,0-4.9-0.6-6.8-1.7
			c-1.9-1.1-3.2-2.8-4-5l3.6-0.9c0.6,1.4,1.4,2.4,2.5,3.1c1.1,0.7,2.5,1,4.1,1c1.8,0,3.2-0.4,4.2-1.2c1-0.8,1.4-1.7,1.2-2.8
			c-0.1-0.9-0.6-1.6-1.3-2.2c-0.7-0.6-1.7-1.1-3.1-1.4l-4.5-1c-2.4-0.6-4.3-1.4-5.6-2.6c-1.3-1.2-2.1-2.7-2.3-4.4
			c-0.2-1.4,0-2.7,0.6-3.8c0.6-1.1,1.6-2,3-2.6c1.3-0.6,2.9-1,4.7-1c2.5,0,4.6,0.6,6.3,1.7C909.6,863.8,910.9,865.3,911.8,867.1z"/>
	</g>
</g>
</svg>
