<?xml version="1.0" encoding="utf-8"?>
<!-- Generator: Adobe Illustrator 24.2.0, SVG Export Plug-In . SVG Version: 6.00 Build 0)  -->
<svg version="1.1"
	 id="svg26" xmlns:cc="http://creativecommons.org/ns#" xmlns:dc="http://purl.org/dc/elements/1.1/" xmlns:inkscape="http://www.inkscape.org/namespaces/inkscape" xmlns:rdf="http://www.w3.org/1999/02/22-rdf-syntax-ns#" xmlns:sodipodi="http://sodipodi.sourceforge.net/DTD/sodipodi-0.dtd" xmlns:svg="http://www.w3.org/2000/svg"
	 xmlns="http://www.w3.org/2000/svg" xmlns:xlink="http://www.w3.org/1999/xlink" x="0px" y="0px" viewBox="0 0 50.3 50.2"
	 style="enable-background:new 0 0 50.3 50.2;" xml:space="preserve">
<style type="text/css">
	.st0{fill:#F1592A;}
</style>
<sodipodi:namedview  bordercolor="#666666" borderopacity="1" gridtolerance="10" guidetolerance="10" id="namedview28" inkscape:current-layer="svg26" inkscape:cx="55.090043" inkscape:cy="23.287362" inkscape:pageopacity="0" inkscape:pageshadow="2" inkscape:window-height="1001" inkscape:window-maximized="1" inkscape:window-width="1920" inkscape:window-x="-9" inkscape:window-y="-9" inkscape:zoom="8" objecttolerance="10" pagecolor="#ffffff" showgrid="false">
	</sodipodi:namedview>
<g id="Layer_2_1_" transform="matrix(0.65762897,0,0,0.65762897,34.875476,4.8752901)">
	<g id="Layer_1-2">
		<path id="path8" inkscape:connector-curvature="0" class="st0" d="M-14.9,69C-35.5,69-52.9,51.7-53,31c-0.1-10.1,3.9-19.7,11-26.9
			c7.2-7.3,17-11.5,27.2-11.5l0,0c10.1,0,19.7,4,26.8,11.1c7.2,7,11.3,16.6,11.4,26.7c0.1,21.1-16.9,38.3-38,38.6H-14.9z M-14.8-5.4
			c-9.7,0.1-19,4-25.8,10.9C-47.3,12.3-51.1,21.4-51,31c0.1,19.6,16.6,36,36.1,36h0.3c20-0.2,36.1-16.5,36.1-36.5
			c-0.1-9.5-4-18.7-10.8-25.3C3.9-1.6-5.3-5.4-14.8-5.4z"/>
		<path id="path10" inkscape:connector-curvature="0" class="st0" d="M-44.5,42V19.6h5.4v2h-2.9V40h2.9v2L-44.5,42z"/>
		<path id="path12" inkscape:connector-curvature="0" class="st0" d="M-26,30.6c0,4.1-2.5,6.4-5.8,6.4s-5.6-2.6-5.6-6.2
			c0-3.7,2.3-6.4,5.8-6.4S-26,27.2-26,30.6z M-35.1,30.8c0,2.5,1.2,4.4,3.4,4.4s3.4-2,3.4-4.5c0-2.3-1.1-4.5-3.4-4.5
			S-35.1,28.3-35.1,30.8L-35.1,30.8z"/>
		<path id="path14" inkscape:connector-curvature="0" class="st0" d="M-24.2,24.9c1.1-0.2,2.1-0.3,3.2-0.3c1.2-0.1,2.4,0.2,3.5,0.8
			c0.8,0.5,1.3,1.3,1.3,2.3c0,1.2-0.8,2.3-2,2.6l0,0c1.4,0.3,2.5,1.5,2.5,3c0,1-0.4,1.9-1.2,2.5c-0.9,0.8-2.3,1.1-4.5,1.1
			c-0.9,0-1.8,0-2.7-0.2L-24.2,24.9z M-22,29.6h1.1c1.5,0,2.4-0.7,2.4-1.8s-0.9-1.7-2.3-1.7c-0.4,0-0.8,0-1.3,0.1L-22,29.6z
			 M-22,35.2c0.4,0,0.8,0.1,1.2,0c1.4,0,2.7-0.5,2.7-2c0-1.5-1.2-2-2.7-2H-22V35.2z"/>
		<path id="path16" inkscape:connector-curvature="0" class="st0" d="M-11.4,24.7h2.2v7.9c0,3.3-1.6,4.5-4,4.5
			c-0.6,0-1.3-0.1-1.9-0.3l0.3-1.8c0.4,0.1,0.9,0.2,1.4,0.2c1.3,0,2-0.6,2-2.7L-11.4,24.7z"/>
		<path id="path18" inkscape:connector-curvature="0" class="st0" d="M-2.9,31.3v1.5h-4.6v-1.5H-2.9z"/>
		<path id="path20" inkscape:connector-curvature="0" class="st0" d="M7.9,36.5c-1,0.4-2.1,0.6-3.1,0.5c-3.8,0-6.2-2.4-6.2-6.1
			c-0.2-3.4,2.4-6.2,5.8-6.4c0.2,0,0.5,0,0.7,0c1,0,2.1,0.1,3,0.5l-0.5,1.8c-0.8-0.3-1.6-0.5-2.4-0.5c-2.5,0-4.2,1.5-4.2,4.5
			c0,2.7,1.6,4.4,4.2,4.4c0.8,0,1.6-0.1,2.4-0.5L7.9,36.5z"/>
		<path id="path22" inkscape:connector-curvature="0" class="st0" d="M14.8,19.6V42H9.4v-2h2.9V21.6H9.4v-2H14.8z"/>
	</g>
</g>
</svg>
