<?xml version="1.0" encoding="utf-8"?>
<!-- Generator: Adobe Illustrator 24.2.0, SVG Export Plug-In . SVG Version: 6.00 Build 0)  -->
<svg version="1.1" id="Layer_1" xmlns="http://www.w3.org/2000/svg" xmlns:xlink="http://www.w3.org/1999/xlink" x="0px" y="0px"
	 viewBox="0 0 24 21.3" style="enable-background:new 0 0 24 21.3;" xml:space="preserve">
<style type="text/css">
	.st0{fill:#E94E36;}
</style>
<path class="st0" d="M14.7,0c2.4,3.2,3.4,7.1,2.5,10.5c-0.1,0.3-0.2,0.6-0.3,0.9c-0.2-0.1-0.3-0.2-0.5-0.3l0,0c0,0-5.4-3.3-11.3-9.2
	c-0.2-0.2,3.1,4.7,6.8,8.5c-1.7-1-6.7-4.5-9.8-7.4C2.7,3.7,3.2,4.4,3.7,5c2.6,3.3,5.9,7.3,10,10.4c-2.9,1.7-6.8,1.8-10.9,0
	c-1-0.4-1.8-1-2.8-1.7c1.7,2.6,4.3,5,7.5,6.3c3.8,1.6,7.6,1.5,10.3,0h0.1c0.1-0.1,0.2-0.1,0.3-0.2c1.3-0.7,4-1.4,5.4,1.4
	c0.4,0.8,1.1-2.8-1.6-6.2h0c0.1-0.1,0.1-0.2,0.1-0.3C23.4,9.4,20.2,3.2,14.7,0z"/>
</svg>
